<svg width="71" height="72" viewBox="0 0 71 72" fill="none" xmlns="http://www.w3.org/2000/svg">
<rect x="1.61796" y="1.85453" width="68.0198" height="68.0198" fill="black" stroke="black" stroke-width="2.42928"/>
<path d="M40.9318 46.3645H31.0763V44.7006L35.0185 39.5296C35.8206 38.5227 36.452 37.6524 36.9128 36.9185C37.3906 36.1676 37.732 35.4594 37.9368 34.7938C38.1586 34.1283 38.2695 33.3944 38.2695 32.5923C38.2695 31.722 38.0391 31.0308 37.5784 30.5188C37.1176 30.0069 36.4691 29.7509 35.6329 29.7509C34.9844 29.7509 34.4041 29.8703 33.8921 30.1093C33.3972 30.3311 32.8853 30.681 32.3562 31.1588L31.2043 29.6741C31.665 29.2645 32.1258 28.9232 32.5866 28.6501C33.0474 28.3771 33.5338 28.1723 34.0457 28.0357C34.5748 27.8992 35.1379 27.831 35.7353 27.831C36.7251 27.831 37.5698 28.0272 38.2695 28.4197C38.9692 28.7952 39.5068 29.3413 39.8823 30.0581C40.2748 30.7578 40.471 31.5684 40.471 32.4899C40.471 33.2238 40.3942 33.9064 40.2406 34.5378C40.0871 35.1693 39.8567 35.7837 39.5495 36.381C39.2594 36.9783 38.8924 37.5926 38.4487 38.2241C38.005 38.8555 37.493 39.5211 36.9128 40.2208L33.6618 44.291V44.3934H40.9318V46.3645Z" fill="white"/>
</svg>
