<svg width="547" height="548" viewBox="0 0 547 548" fill="none" xmlns="http://www.w3.org/2000/svg">
<rect x="476.789" y="69.8636" width="68.0198" height="68.0198" fill="black" stroke="black" stroke-width="2.42928"/>
<rect x="476.789" y="205.929" width="68.0198" height="68.0198" fill="black" stroke="black" stroke-width="2.42928"/>
<rect x="476.789" y="341.934" width="68.0198" height="68.0198" fill="black" stroke="black" stroke-width="2.42928"/>
<rect x="476.789" y="477.939" width="68.0198" height="68.0198" fill="black" stroke="black" stroke-width="2.42928"/>
<rect x="408.935" y="137.878" width="68.0198" height="68.0198" fill="black" stroke="black" stroke-width="2.42928"/>
<rect x="408.935" y="273.921" width="68.0198" height="68.0198" fill="black" stroke="black" stroke-width="2.42928"/>
<rect x="408.935" y="409.986" width="68.0198" height="68.0198" fill="black" stroke="black" stroke-width="2.42928"/>
<rect x="340.908" y="69.8636" width="68.0198" height="68.0198" fill="black" stroke="black" stroke-width="2.42928"/>
<rect x="340.908" y="205.929" width="68.0198" height="68.0198" fill="black" stroke="black" stroke-width="2.42928"/>
<rect x="340.908" y="341.934" width="68.0198" height="68.0198" fill="black" stroke="black" stroke-width="2.42928"/>
<rect x="340.908" y="477.939" width="68.0198" height="68.0198" fill="black" stroke="black" stroke-width="2.42928"/>
<rect x="273.057" y="137.878" width="68.0198" height="68.0198" fill="black" stroke="black" stroke-width="2.42928"/>
<rect x="273.057" y="273.921" width="68.0198" height="68.0198" fill="black" stroke="black" stroke-width="2.42928"/>
<rect x="273.057" y="409.986" width="68.0198" height="68.0198" fill="black" stroke="black" stroke-width="2.42928"/>
<rect x="205.029" y="69.8636" width="68.0198" height="68.0198" fill="black" stroke="black" stroke-width="2.42928"/>
<rect x="205.029" y="205.929" width="68.0198" height="68.0198" fill="black" stroke="black" stroke-width="2.42928"/>
<rect x="205.029" y="341.934" width="68.0198" height="68.0198" fill="black" stroke="black" stroke-width="2.42928"/>
<rect x="205.029" y="477.939" width="68.0198" height="68.0198" fill="black" stroke="black" stroke-width="2.42928"/>
<rect x="137.178" y="137.878" width="68.0198" height="68.0198" fill="black" stroke="black" stroke-width="2.42928"/>
<rect x="137.178" y="273.921" width="68.0198" height="68.0198" fill="black" stroke="black" stroke-width="2.42928"/>
<rect x="137.178" y="409.986" width="68.0198" height="68.0198" fill="black" stroke="black" stroke-width="2.42928"/>
<rect x="69.1485" y="69.8636" width="68.0198" height="68.0198" fill="black" stroke="black" stroke-width="2.42928"/>
<rect x="69.1485" y="205.929" width="68.0198" height="68.0198" fill="black" stroke="black" stroke-width="2.42928"/>
<rect x="69.1485" y="341.934" width="68.0198" height="68.0198" fill="black" stroke="black" stroke-width="2.42928"/>
<rect x="69.1485" y="477.939" width="68.0198" height="68.0198" fill="black" stroke="black" stroke-width="2.42928"/>
<rect x="408.935" y="1.83378" width="68.0198" height="68.0198" fill="black" stroke="black" stroke-width="2.42928"/>
<rect x="273.057" y="1.83378" width="68.0198" height="68.0198" fill="black" stroke="black" stroke-width="2.42928"/>
<rect x="137.178" y="1.83378" width="68.0198" height="68.0198" fill="black" stroke="black" stroke-width="2.42928"/>
<rect x="1.2989" y="1.83378" width="68.0198" height="68.0198" fill="black" stroke="black" stroke-width="2.42928"/>
<rect x="1.2989" y="137.878" width="68.0198" height="68.0198" fill="black" stroke="black" stroke-width="2.42928"/>
<rect x="1.2989" y="273.921" width="68.0198" height="68.0198" fill="black" stroke="black" stroke-width="2.42928"/>
<rect x="1.2989" y="409.986" width="68.0198" height="68.0198" fill="black" stroke="black" stroke-width="2.42928"/>
</svg>
