<svg width="235" height="131" viewBox="0 0 235 131" fill="none" xmlns="http://www.w3.org/2000/svg">
<path d="M170.226 2.35707C146.111 2.35707 121.995 2.35707 97.8794 2.35707C93.0066 2.35707 88.1338 2.35707 83.261 2.35707C78.9899 2.35707 72.7506 1.40453 68.7823 3.52096C58.8783 8.80308 79.0323 30.2933 82.423 33.6423C106.249 57.1752 134.967 75.1876 163.429 92.4883C165.358 93.6606 167.299 94.8141 169.202 96.0265C170.339 96.7503 172.509 97.2004 172.368 98.5405C172.117 100.921 167.46 98.0575 165.385 96.8645C158.267 92.7728 151.617 87.1846 145.738 81.5478C129.686 66.1556 113.731 48.315 103.14 28.6143C101.234 25.0677 98.1922 14.5905 105.747 19.7222C120.695 29.8756 131.625 50.3074 138.755 66.3242C141.548 72.5981 150.078 94.0512 140.478 98.6801C130.969 103.265 115.141 89.6441 109.704 82.991C97.3288 67.8471 105.17 50.9923 119.807 40.7653C122.522 38.8679 158.383 20.4088 159.332 23.4932C159.686 24.6436 157.454 27.5538 157.098 28.0556C150.851 36.8578 143.203 44.9983 135.822 52.8231C121.226 68.2962 105.337 81.6015 87.0785 92.4883C84.7327 93.887 82.1919 94.5367 85.6819 94.5367C90.4321 94.5367 95.1797 94.5437 99.9278 94.7229C107.499 95.0086 115.057 95.4992 122.6 96.2127C124.465 96.3891 134.451 96.2269 136.194 98.2611C136.779 98.943 134.439 98.7267 133.541 98.7267C128.512 98.7267 123.632 97.679 118.829 96.2127C86.7287 86.4125 55.5979 68.2571 28.6516 48.6331C27.4029 47.7237 -8.12285 20.4419 4.20998 15.4857C9.63302 13.3063 19.6163 16.4926 24.2288 17.7203C54.8594 25.8738 84.2357 39.731 112.218 54.3594C149.539 73.8691 187.29 96.3244 219.575 123.68C223.771 127.236 221.17 125.054 221.391 120.096C221.944 107.645 226.104 94.8187 229.259 82.8513C229.891 80.4511 235.628 64.0094 231.028 64.3688C219.192 65.2935 205.949 73.0532 195.832 78.6613C184.25 85.0817 173.09 92.2414 162.126 99.6578C157.22 102.976 143.861 114.359 147.414 109.621C154.407 100.297 163.478 91.9051 171.344 83.3634C186.811 66.5673 202.076 49.447 217.899 32.9905C218.44 32.4275 219.944 31.8144 219.435 31.2214C217.045 28.4327 204.309 35.3762 203.979 35.5511C165.039 56.1661 137.06 93.0784 104.118 121.446C102.419 122.909 96.5314 129.108 93.5032 129.36C92.8394 129.415 93.1307 125.757 93.1307 125.543" stroke="#B30000" stroke-width="3" stroke-linecap="round"/>
</svg>
