<svg width="1575" height="539" viewBox="0 0 1575 539" fill="none" xmlns="http://www.w3.org/2000/svg">
<path d="M88.7959 203.663H68.6513L30.1316 154.39V203.663H12.7092V106.479H30.1316V153.573L67.9707 106.479H86.8903L48.915 153.437L88.7959 203.663ZM185.682 154.935C185.682 162.466 184.729 169.317 182.824 175.488C181.009 181.567 178.196 186.83 174.385 191.277C170.664 195.723 165.901 199.126 160.093 201.485C154.376 203.844 147.662 205.024 139.948 205.024C132.145 205.024 125.339 203.844 119.532 201.485C113.815 199.035 109.096 195.632 105.376 191.277C101.656 186.83 98.8426 181.522 96.9371 175.351C95.1222 169.181 94.2148 162.33 94.2148 154.798C94.2148 144.726 95.8482 135.97 99.1149 128.529C102.472 121.088 107.508 115.326 114.223 111.243C121.029 107.069 129.649 104.981 140.085 104.981C150.338 104.981 158.823 107.069 165.538 111.243C172.252 115.326 177.289 121.133 180.646 128.665C184.003 136.106 185.682 144.862 185.682 154.935ZM112.59 154.935C112.59 162.285 113.543 168.591 115.448 173.854C117.445 179.117 120.439 183.155 124.432 185.968C128.515 188.781 133.687 190.188 139.948 190.188C146.391 190.188 151.609 188.781 155.601 185.968C159.594 183.155 162.543 179.117 164.449 173.854C166.354 168.591 167.307 162.285 167.307 154.935C167.307 143.955 165.175 135.334 160.91 129.073C156.645 122.812 149.703 119.682 140.085 119.682C133.733 119.682 128.515 121.088 124.432 123.901C120.439 126.714 117.445 130.752 115.448 136.015C113.543 141.278 112.59 147.585 112.59 154.935ZM265.313 106.479V121.179H223.799V203.663H206.377V106.479H265.313ZM346.037 106.479V188.827H358.832V230.885H341.954V203.663H278.934V230.885H262.056V188.827H269.542C272.355 183.563 275.032 177.892 277.573 171.812C280.204 165.642 282.563 159.109 284.651 152.212C286.828 145.316 288.689 138.057 290.231 130.434C291.864 122.721 293.089 114.736 293.906 106.479H346.037ZM308.062 121.315C307.517 126.215 306.61 131.569 305.34 137.376C304.069 143.184 302.527 149.127 300.712 155.207C298.988 161.286 297.037 167.23 294.859 173.037C292.681 178.754 290.367 184.017 287.917 188.827H328.751V121.315H308.062ZM434.282 203.663L425.435 177.938H388.821L380.11 203.663H361.599L397.26 106.07H417.132L452.794 203.663H434.282ZM412.504 137.921C412.141 136.65 411.597 134.926 410.871 132.748C410.145 130.571 409.419 128.347 408.693 126.079C408.058 123.72 407.559 121.769 407.196 120.226C406.742 122.041 406.153 124.128 405.427 126.487C404.791 128.846 404.156 131.07 403.521 133.157C402.977 135.244 402.523 136.832 402.16 137.921L393.585 162.965H420.943L412.504 137.921ZM530.196 106.479C538.635 106.479 545.712 107.295 551.429 108.929C557.146 110.471 561.411 113.012 564.224 116.551C567.127 120.09 568.579 124.854 568.579 130.843C568.579 134.563 567.944 137.921 566.674 140.915C565.403 143.91 563.543 146.36 561.093 148.265C558.734 150.171 555.785 151.441 552.246 152.076V152.757C555.876 153.392 559.097 154.572 561.91 156.296C564.814 157.929 567.082 160.334 568.715 163.51C570.439 166.595 571.302 170.678 571.302 175.76C571.302 181.658 569.895 186.694 567.082 190.868C564.269 195.042 560.231 198.218 554.968 200.396C549.796 202.574 543.625 203.663 536.457 203.663H500.932V106.479H530.196ZM532.51 146.087C539.406 146.087 544.124 144.998 546.665 142.821C549.297 140.643 550.613 137.422 550.613 133.157C550.613 128.801 549.07 125.67 545.985 123.765C542.899 121.859 537.954 120.907 531.148 120.907H518.354V146.087H532.51ZM518.354 160.107V189.099H534.143C541.221 189.099 546.121 187.738 548.843 185.015C551.656 182.293 553.063 178.663 553.063 174.126C553.063 171.223 552.473 168.727 551.293 166.64C550.113 164.553 548.072 162.965 545.168 161.876C542.264 160.697 538.317 160.107 533.326 160.107H518.354ZM632.697 119.818C628.25 119.818 624.303 120.634 620.855 122.268C617.407 123.901 614.458 126.26 612.008 129.346C609.648 132.431 607.833 136.151 606.563 140.507C605.383 144.862 604.794 149.762 604.794 155.207C604.794 162.557 605.792 168.863 607.788 174.126C609.784 179.299 612.824 183.291 616.908 186.104C621.082 188.917 626.299 190.324 632.56 190.324C636.735 190.324 640.727 189.915 644.538 189.099C648.44 188.191 652.524 187.012 656.788 185.56V200.396C652.796 202.029 648.758 203.209 644.674 203.935C640.682 204.661 636.054 205.024 630.791 205.024C620.809 205.024 612.552 202.982 606.019 198.899C599.485 194.725 594.631 188.917 591.455 181.476C588.279 173.945 586.691 165.143 586.691 155.071C586.691 147.721 587.689 141.006 589.685 134.926C591.772 128.846 594.721 123.583 598.532 119.137C602.434 114.691 607.244 111.243 612.96 108.793C618.677 106.343 625.256 105.118 632.697 105.118C637.597 105.118 642.406 105.707 647.124 106.887C651.934 107.976 656.425 109.519 660.6 111.515L654.611 125.807C651.162 124.264 647.578 122.903 643.858 121.723C640.228 120.453 636.508 119.818 632.697 119.818ZM732.979 203.663H677.718V106.479H732.979V121.043H695.14V145.815H730.529V160.379H695.14V188.963H732.979V203.663ZM684.796 87.1508C684.796 84.247 685.567 82.16 687.11 80.8896C688.743 79.6192 690.694 78.984 692.962 78.984C695.14 78.984 697.046 79.6192 698.679 80.8896C700.403 82.16 701.265 84.247 701.265 87.1508C701.265 89.873 700.403 91.9147 698.679 93.2758C697.046 94.5462 695.14 95.1814 692.962 95.1814C690.694 95.1814 688.743 94.5462 687.11 93.2758C685.567 91.9147 684.796 89.873 684.796 87.1508ZM711.201 87.1508C711.201 84.247 711.973 82.16 713.515 80.8896C715.149 79.6192 717.1 78.984 719.368 78.984C721.546 78.984 723.451 79.6192 725.085 80.8896C726.809 82.16 727.671 84.247 727.671 87.1508C727.671 89.873 726.809 91.9147 725.085 93.2758C723.451 94.5462 721.546 95.1814 719.368 95.1814C717.1 95.1814 715.149 94.5462 713.515 93.2758C711.973 91.9147 711.201 89.873 711.201 87.1508ZM788.973 203.663V106.479H848.863V121.179H806.396V145.271H816.876C826.223 145.271 833.709 146.496 839.335 148.946C845.052 151.396 849.18 154.798 851.721 159.154C854.262 163.51 855.532 168.455 855.532 173.99C855.532 180.161 854.217 185.469 851.585 189.915C848.954 194.362 844.825 197.765 839.199 200.124C833.573 202.483 826.268 203.663 817.285 203.663H788.973ZM816.332 189.235C823.501 189.235 828.854 188.055 832.393 185.696C836.023 183.337 837.838 179.435 837.838 173.99C837.838 170.27 836.93 167.412 835.115 165.415C833.391 163.328 830.805 161.876 827.357 161.06C824 160.152 819.735 159.699 814.563 159.699H806.396V189.235H816.332ZM929.837 203.663H874.575V106.479H929.837V121.043H891.998V145.815H927.387V160.379H891.998V188.963H929.837V203.663ZM991.852 119.818C987.405 119.818 983.458 120.634 980.01 122.268C976.562 123.901 973.613 126.26 971.163 129.346C968.803 132.431 966.989 136.151 965.718 140.507C964.539 144.862 963.949 149.762 963.949 155.207C963.949 162.557 964.947 168.863 966.943 174.126C968.94 179.299 971.979 183.291 976.063 186.104C980.237 188.917 985.454 190.324 991.716 190.324C995.89 190.324 999.882 189.915 1003.69 189.099C1007.6 188.191 1011.68 187.012 1015.94 185.56V200.396C1011.95 202.029 1007.91 203.209 1003.83 203.935C999.837 204.661 995.209 205.024 989.946 205.024C979.965 205.024 971.707 202.982 965.174 198.899C958.64 194.725 953.786 188.917 950.61 181.476C947.434 173.945 945.846 165.143 945.846 155.071C945.846 147.721 946.844 141.006 948.84 134.926C950.927 128.846 953.876 123.583 957.688 119.137C961.589 114.691 966.399 111.243 972.115 108.793C977.832 106.343 984.411 105.118 991.852 105.118C996.752 105.118 1001.56 105.707 1006.28 106.887C1011.09 107.976 1015.58 109.519 1019.75 111.515L1013.77 125.807C1010.32 124.264 1006.73 122.903 1003.01 121.723C999.383 120.453 995.663 119.818 991.852 119.818ZM1036.87 106.479H1052.66V155.887C1052.66 158.156 1052.62 160.697 1052.53 163.51C1052.53 166.232 1052.48 168.909 1052.39 171.54C1052.3 174.172 1052.16 176.486 1051.98 178.482C1051.89 180.478 1051.8 181.885 1051.71 182.701H1052.25L1100.44 106.479H1120.85V203.663H1105.07V154.662C1105.07 152.212 1105.11 149.535 1105.2 146.632C1105.29 143.728 1105.38 140.915 1105.47 138.193C1105.65 135.471 1105.79 133.111 1105.88 131.115C1106.06 129.028 1106.2 127.576 1106.29 126.759H1105.75L1057.43 203.663H1036.87V106.479ZM1180.85 203.663H1163.42V121.179H1135.52V106.479H1208.75V121.179H1180.85V203.663ZM54.4956 356.663L27.8176 277.037H27.2732C27.3639 278.852 27.5001 281.438 27.6815 284.796C27.863 288.062 27.9991 291.647 28.0899 295.548C28.2714 299.36 28.3621 302.944 28.3621 306.301V356.663H12.7092V259.479H36.9372L62.5262 335.838H63.0707L89.7487 259.479H113.977V356.663H97.3709V305.485C97.3709 302.399 97.4163 299.042 97.507 295.412C97.6885 291.692 97.8246 288.198 97.9154 284.932C98.0969 281.574 98.233 278.988 98.3237 277.173H97.7793L70.0124 356.663H54.4956ZM225.958 307.935C225.958 315.466 225.005 322.317 223.099 328.488C221.284 334.567 218.471 339.83 214.66 344.277C210.94 348.723 206.176 352.126 200.368 354.485C194.652 356.844 187.937 358.024 180.224 358.024C172.42 358.024 165.614 356.844 159.807 354.485C154.09 352.035 149.372 348.632 145.651 344.277C141.931 339.83 139.118 334.522 137.212 328.351C135.398 322.181 134.49 315.33 134.49 307.798C134.49 297.726 136.124 288.97 139.39 281.529C142.748 274.088 147.784 268.326 154.499 264.243C161.304 260.069 169.925 257.981 180.36 257.981C190.614 257.981 199.098 260.069 205.813 264.243C212.528 268.326 217.564 274.133 220.921 281.665C224.279 289.106 225.958 297.862 225.958 307.935ZM152.865 307.935C152.865 315.285 153.818 321.591 155.724 326.854C157.72 332.117 160.714 336.155 164.707 338.968C168.79 341.781 173.963 343.188 180.224 343.188C186.666 343.188 191.884 341.781 195.877 338.968C199.869 336.155 202.818 332.117 204.724 326.854C206.63 321.591 207.582 315.285 207.582 307.935C207.582 296.955 205.45 288.334 201.185 282.073C196.92 275.812 189.979 272.682 180.36 272.682C174.008 272.682 168.79 274.088 164.707 276.901C160.714 279.714 157.72 283.752 155.724 289.015C153.818 294.278 152.865 300.585 152.865 307.935ZM267.677 306.437L233.104 259.479H251.48L285.099 306.573V259.479H301.433V306.573L335.052 259.479H353.428L318.855 306.301L355.061 356.663H336.005L301.433 307.39V356.663H285.099V307.39L250.391 356.663H231.335L267.677 306.437ZM423.005 356.663H367.744V259.479H423.005V274.043H385.166V298.815H420.555V313.379H385.166V341.963H423.005V356.663ZM478.487 356.663H461.065V274.179H433.162V259.479H506.39V274.179H478.487V356.663ZM556.626 356.663V259.479H632.032V356.663H614.61V274.179H574.048V356.663H556.626ZM744.22 307.935C744.22 315.466 743.267 322.317 741.362 328.488C739.547 334.567 736.734 339.83 732.923 344.277C729.203 348.723 724.439 352.126 718.631 354.485C712.914 356.844 706.2 358.024 698.487 358.024C690.683 358.024 683.877 356.844 678.07 354.485C672.353 352.035 667.634 348.632 663.914 344.277C660.194 339.83 657.381 334.522 655.475 328.351C653.66 322.181 652.753 315.33 652.753 307.798C652.753 297.726 654.386 288.97 657.653 281.529C661.01 274.088 666.047 268.326 672.761 264.243C679.567 260.069 688.187 257.981 698.623 257.981C708.876 257.981 717.361 260.069 724.076 264.243C730.791 268.326 735.827 274.133 739.184 281.665C742.542 289.106 744.22 297.862 744.22 307.935ZM671.128 307.935C671.128 315.285 672.081 321.591 673.986 326.854C675.983 332.117 678.977 336.155 682.97 338.968C687.053 341.781 692.225 343.188 698.487 343.188C704.929 343.188 710.147 341.781 714.139 338.968C718.132 336.155 721.081 332.117 722.987 326.854C724.892 321.591 725.845 315.285 725.845 307.935C725.845 296.955 723.713 288.334 719.448 282.073C715.183 275.812 708.241 272.682 698.623 272.682C692.271 272.682 687.053 274.088 682.97 276.901C678.977 279.714 675.983 283.752 673.986 289.015C672.081 294.278 671.128 300.585 671.128 307.935ZM806.701 356.663L780.023 277.037H779.479C779.569 278.852 779.705 281.438 779.887 284.796C780.068 288.062 780.205 291.647 780.295 295.548C780.477 299.36 780.567 302.944 780.567 306.301V356.663H764.915V259.479H789.143L814.732 335.838H815.276L841.954 259.479H866.182V356.663H849.576V305.485C849.576 302.399 849.622 299.042 849.712 295.412C849.894 291.692 850.03 288.198 850.121 284.932C850.302 281.574 850.438 278.988 850.529 277.173H849.985L822.218 356.663H806.701ZM978.163 307.935C978.163 315.466 977.21 322.317 975.305 328.488C973.49 334.567 970.677 339.83 966.866 344.277C963.145 348.723 958.381 352.126 952.574 354.485C946.857 356.844 940.142 358.024 932.429 358.024C924.625 358.024 917.82 356.844 912.012 354.485C906.296 352.035 901.577 348.632 897.857 344.277C894.136 339.83 891.323 334.522 889.418 328.351C887.603 322.181 886.696 315.33 886.696 307.798C886.696 297.726 888.329 288.97 891.596 281.529C894.953 274.088 899.989 268.326 906.704 264.243C913.51 260.069 922.13 257.981 932.565 257.981C942.819 257.981 951.303 260.069 958.018 264.243C964.733 268.326 969.769 274.133 973.127 281.665C976.484 289.106 978.163 297.862 978.163 307.935ZM905.071 307.935C905.071 315.285 906.024 321.591 907.929 326.854C909.925 332.117 912.92 336.155 916.912 338.968C920.996 341.781 926.168 343.188 932.429 343.188C938.872 343.188 944.09 341.781 948.082 338.968C952.075 336.155 955.024 332.117 956.929 326.854C958.835 321.591 959.788 315.285 959.788 307.935C959.788 296.955 957.655 288.334 953.391 282.073C949.126 275.812 942.184 272.682 932.565 272.682C926.213 272.682 920.996 274.088 916.912 276.901C912.92 279.714 909.925 283.752 907.929 289.015C906.024 294.278 905.071 300.585 905.071 307.935ZM1068.47 356.663H1051.05V318.279C1045.52 320.185 1040.39 321.682 1035.67 322.771C1030.95 323.769 1026.05 324.268 1020.97 324.268C1011.9 324.268 1004.82 322.09 999.738 317.735C994.656 313.379 992.115 307.163 992.115 299.087V259.479H1009.54V294.868C1009.54 299.768 1010.72 303.443 1013.08 305.893C1015.53 308.343 1019.52 309.568 1025.05 309.568C1029.5 309.568 1033.68 309.114 1037.58 308.207C1041.57 307.299 1046.06 306.029 1051.05 304.396V259.479H1068.47V356.663ZM1093.76 356.663V259.479H1111.19V298.271H1123.16C1132.24 298.271 1139.59 299.541 1145.21 302.082C1150.93 304.532 1155.1 307.935 1157.74 312.29C1160.37 316.646 1161.68 321.546 1161.68 326.99C1161.68 333.161 1160.32 338.469 1157.6 342.915C1154.88 347.271 1150.7 350.674 1145.08 353.124C1139.45 355.483 1132.24 356.663 1123.44 356.663H1093.76ZM1122.48 342.235C1129.29 342.235 1134.55 341.055 1138.27 338.696C1142.08 336.337 1143.99 332.435 1143.99 326.99C1143.99 323.27 1143.04 320.412 1141.13 318.415C1139.32 316.328 1136.68 314.876 1133.24 314.06C1129.88 313.152 1125.7 312.699 1120.71 312.699H1111.19V342.235H1122.48ZM47.5539 509.663H30.1316V427.179H2.22857V412.479H75.4569V427.179H47.5539V509.663ZM174.517 460.935C174.517 468.466 173.564 475.317 171.658 481.488C169.844 487.567 167.031 492.83 163.219 497.277C159.499 501.723 154.735 505.126 148.928 507.485C143.211 509.844 136.496 511.024 128.783 511.024C120.979 511.024 114.174 509.844 108.366 507.485C102.65 505.035 97.931 501.632 94.2106 497.277C90.4902 492.83 87.6772 487.522 85.7716 481.351C83.9568 475.181 83.0494 468.33 83.0494 460.798C83.0494 450.726 84.6827 441.97 87.9494 434.529C91.3068 427.088 96.343 421.326 103.058 417.243C109.863 413.069 118.484 410.981 128.919 410.981C139.173 410.981 147.657 413.069 154.372 417.243C161.087 421.326 166.123 427.133 169.481 434.665C172.838 442.106 174.517 450.862 174.517 460.935ZM101.425 460.935C101.425 468.285 102.377 474.591 104.283 479.854C106.279 485.117 109.274 489.155 113.266 491.968C117.35 494.781 122.522 496.188 128.783 496.188C135.226 496.188 140.443 494.781 144.436 491.968C148.429 489.155 151.378 485.117 153.283 479.854C155.189 474.591 156.142 468.285 156.142 460.935C156.142 449.955 154.009 441.334 149.744 435.073C145.479 428.812 138.538 425.682 128.919 425.682C122.567 425.682 117.35 427.088 113.266 429.901C109.274 432.714 106.279 436.752 104.283 442.015C102.377 447.278 101.425 453.585 101.425 460.935ZM195.211 509.663V412.479H212.633V451.271H224.611C233.685 451.271 241.035 452.541 246.661 455.082C252.378 457.532 256.552 460.935 259.184 465.29C261.815 469.646 263.131 474.546 263.131 479.99C263.131 486.161 261.77 491.469 259.048 495.915C256.325 500.271 252.151 503.674 246.525 506.124C240.899 508.483 233.685 509.663 224.884 509.663H195.211ZM223.931 495.235C230.736 495.235 235.999 494.055 239.72 491.696C243.531 489.337 245.436 485.435 245.436 479.99C245.436 476.27 244.484 473.412 242.578 471.415C240.763 469.328 238.132 467.876 234.684 467.06C231.326 466.152 227.152 465.699 222.161 465.699H212.633V495.235H223.931ZM356.456 509.663H339.034V427.179H312.628C312.083 431.716 311.494 436.571 310.858 441.743C310.223 446.824 309.543 451.951 308.817 457.123C308.091 462.205 307.365 467.06 306.639 471.687C305.913 476.225 305.187 480.217 304.461 483.665C303.282 489.473 301.739 494.464 299.833 498.638C298.019 502.721 295.478 505.806 292.211 507.893C289.035 509.98 284.906 511.024 279.825 511.024C278.101 511.024 276.422 510.888 274.789 510.616C273.155 510.343 271.658 509.98 270.297 509.527V495.099C271.477 495.552 272.656 495.915 273.836 496.188C275.016 496.46 276.286 496.596 277.647 496.596C279.825 496.596 281.549 495.825 282.819 494.282C284.181 492.739 285.315 490.471 286.222 487.476C287.13 484.391 287.992 480.625 288.808 476.179C289.353 473.82 289.943 470.553 290.578 466.379C291.213 462.205 291.939 457.305 292.756 451.679C293.663 446.053 294.57 439.928 295.478 433.304C296.476 426.589 297.383 419.647 298.2 412.479H356.456V509.663ZM457.92 509.663H437.776L399.256 460.39V509.663H381.834V412.479H399.256V459.573L437.095 412.479H456.015L418.039 459.437L457.92 509.663ZM554.806 460.935C554.806 468.466 553.854 475.317 551.948 481.488C550.133 487.567 547.32 492.83 543.509 497.277C539.789 501.723 535.025 505.126 529.217 507.485C523.501 509.844 516.786 511.024 509.073 511.024C501.269 511.024 494.463 509.844 488.656 507.485C482.939 505.035 478.221 501.632 474.5 497.277C470.78 492.83 467.967 487.522 466.061 481.351C464.247 475.181 463.339 468.33 463.339 460.798C463.339 450.726 464.972 441.97 468.239 434.529C471.597 427.088 476.633 421.326 483.348 417.243C490.153 413.069 498.774 410.981 509.209 410.981C519.463 410.981 527.947 413.069 534.662 417.243C541.377 421.326 546.413 427.133 549.77 434.665C553.128 442.106 554.806 450.862 554.806 460.935ZM481.714 460.935C481.714 468.285 482.667 474.591 484.573 479.854C486.569 485.117 489.563 489.155 493.556 491.968C497.639 494.781 502.812 496.188 509.073 496.188C515.515 496.188 520.733 494.781 524.726 491.968C528.718 489.155 531.667 485.117 533.573 479.854C535.479 474.591 536.431 468.285 536.431 460.935C536.431 449.955 534.299 441.334 530.034 435.073C525.769 428.812 518.827 425.682 509.209 425.682C502.857 425.682 497.639 427.088 493.556 429.901C489.563 432.714 486.569 436.752 484.573 442.015C482.667 447.278 481.714 453.585 481.714 460.935ZM633.044 425.818C628.598 425.818 624.333 426.407 620.25 427.587C616.166 428.767 612.31 430.128 608.68 431.67L602.691 417.515C607.138 415.519 611.902 413.976 616.983 412.887C622.155 411.707 627.6 411.118 633.317 411.118C640.757 411.118 647.291 412.297 652.917 414.656C658.543 416.925 663.261 420.237 667.072 424.593C670.974 428.858 673.878 434.03 675.783 440.109C677.78 446.189 678.778 452.995 678.778 460.526C678.778 470.78 677.054 479.718 673.606 487.34C670.248 494.872 665.076 500.725 658.089 504.899C651.193 508.982 642.436 511.024 631.819 511.024C626.193 511.024 621.248 510.661 616.983 509.935C612.718 509.209 608.408 508.029 604.052 506.396V491.56C608.771 493.012 613.217 494.191 617.391 495.099C621.656 495.915 625.966 496.324 630.322 496.324C635.131 496.324 639.351 495.689 642.98 494.418C646.701 493.148 649.786 491.333 652.236 488.974C654.777 486.524 656.728 483.484 658.089 479.854C659.45 476.225 660.221 472.005 660.403 467.196H616.302V452.632H660.267C660.085 448.367 659.269 444.601 657.817 441.334C656.456 438.068 654.595 435.3 652.236 433.032C649.877 430.672 647.064 428.903 643.797 427.723C640.621 426.453 637.037 425.818 633.044 425.818ZM730.374 509.663H712.952V427.179H685.049V412.479H758.277V427.179H730.374V509.663ZM857.337 460.935C857.337 468.466 856.384 475.317 854.478 481.488C852.664 487.567 849.851 492.83 846.04 497.277C842.319 501.723 837.555 505.126 831.748 507.485C826.031 509.844 819.316 511.024 811.603 511.024C803.799 511.024 796.994 509.844 791.186 507.485C785.47 505.035 780.751 501.632 777.031 497.277C773.31 492.83 770.497 487.522 768.592 481.351C766.777 475.181 765.869 468.33 765.869 460.798C765.869 450.726 767.503 441.97 770.77 434.529C774.127 427.088 779.163 421.326 785.878 417.243C792.684 413.069 801.304 410.981 811.739 410.981C821.993 410.981 830.477 413.069 837.192 417.243C843.907 421.326 848.943 427.133 852.301 434.665C855.658 442.106 857.337 450.862 857.337 460.935ZM784.245 460.935C784.245 468.285 785.197 474.591 787.103 479.854C789.099 485.117 792.094 489.155 796.086 491.968C800.17 494.781 805.342 496.188 811.603 496.188C818.046 496.188 823.263 494.781 827.256 491.968C831.249 489.155 834.198 485.117 836.103 479.854C838.009 474.591 838.962 468.285 838.962 460.935C838.962 449.955 836.829 441.334 832.564 435.073C828.3 428.812 821.358 425.682 811.739 425.682C805.387 425.682 800.17 427.088 796.086 429.901C792.094 432.714 789.099 436.752 787.103 442.015C785.197 447.278 784.245 453.585 784.245 460.935Z" fill="black"/>
<path d="M545.739 530.032C615.411 530.032 685.714 532.952 755.235 528.036C765.374 527.319 759.152 527.268 755.005 527.268C744.948 527.268 734.892 527.268 724.835 527.268C699.426 527.268 674.016 527.268 648.606 527.268C636.366 527.268 600.011 525.788 611.912 528.65C633.821 533.92 657.923 533.856 680.234 534.638C709.801 535.674 739.396 535.559 768.976 535.559C796.612 535.559 713.701 535.183 686.068 535.636C677.312 535.78 668.377 535.973 659.661 536.941C655.948 537.354 667.133 536.941 670.869 536.941C703.776 536.941 736.683 536.941 769.59 536.941" stroke="#B30000" stroke-width="3.29594" stroke-linecap="round"/>
<path d="M867.681 398.073C867.681 402.857 867.654 407.569 867.134 412.335C866.28 420.164 865.114 427.967 864.316 435.798C862.624 452.418 862.663 469.145 862.476 485.829C862.424 490.451 861.975 494.977 861.585 499.573C861.402 501.727 861.427 502.053 861.47 499.861C861.557 495.409 862.697 490.979 863.54 486.634C865.089 478.652 866.194 470.579 868.026 462.654C871.581 447.265 876.461 432.176 879.527 416.677C879.81 415.245 883.167 402.479 878.808 407.217C876.356 409.882 875.875 414.658 875.099 417.971C872.016 431.132 870.425 444.401 869.636 457.881C868.834 471.565 868.432 485.271 867.393 498.941C867.13 502.395 867.053 504.158 865.61 500.551" stroke="#B30000" stroke-width="3.29594" stroke-linecap="round"/>
<path d="M904.669 426.25C901.11 418.808 902.535 411.93 911.685 409.918C920.64 407.948 932.318 408.251 940.783 412.046C946.364 414.547 945.917 418.549 943.314 423.49C938.477 432.67 930.815 440.006 924.451 448.074C917.039 457.471 909.116 468.256 905.244 479.731C903.619 484.547 903.634 489.504 903.634 494.511C903.634 497.676 903.283 493.414 903.116 492.498" stroke="#B30000" stroke-width="3.29594" stroke-linecap="round"/>
<path d="M895.87 521.999C896.107 526.27 901.341 525.597 903.289 522.948C904.558 521.222 905.268 517.746 904.439 515.673C903.271 512.755 899.673 514.764 898.688 516.708C897.548 518.958 895.726 530.327 900.499 525.852C900.917 525.461 902.313 523.096 901.333 522.632C899.758 521.886 897.015 524.287 895.87 525.104" stroke="#B30000" stroke-width="3.29594" stroke-linecap="round"/>
<path d="M864.058 519.701C862.731 519.767 859.779 520.669 861.24 522.547C862.406 524.047 866.737 523.454 868.371 523.209C871.459 522.745 869.573 518.603 868.658 516.825C866.634 512.89 862.364 512.977 858.595 514.468C855.135 515.836 850.117 521.213 855.949 523.036C857.317 523.464 867.423 525.658 867.163 523.324C866.723 519.358 854.272 530.831 864.058 525.394" stroke="#B30000" stroke-width="3.29594" stroke-linecap="round"/>
<path d="M427.186 79.2343C432.717 84.4887 435.627 91.0423 437.17 98.631C438.871 107.002 439.38 132.702 439.38 124.161C439.38 114.157 446.996 104.669 454.57 98.7736C471.409 85.6662 496.653 85.1168 517.039 83.7269" stroke="#B30000" stroke-width="3.29594" stroke-linecap="round"/>
<path d="M462.542 44.8939C463.775 53.631 468.277 60.4292 472.774 67.7611" stroke="#B30000" stroke-width="2.73219" stroke-linecap="round"/>
<path d="M463.901 44.4841C464.754 42.8946 466.235 40.5027 467.81 39.6187C469.879 38.4572 474.182 42.5214 475.248 43.8639C478.131 47.4926 475.645 52.6295 473.989 56.1488C472.285 59.7668 468.011 58.1158 474.32 55.678C475.152 54.6932 477.573 54.45 478.689 54.1136C481.769 53.1849 484.971 52.135 488.213 52.0245C492.782 51.8687 490.351 57.2046 489.497 59.8349C488.442 63.0864 486.716 66.059 484.385 68.5647C482.902 70.1595 479.845 73.0438 477.488 73.219C476.041 73.3265 473.453 70.8657 472.606 69.6653" stroke="#B30000" stroke-width="2.73219" stroke-linecap="round"/>
<path d="M503.744 27.3227C503.126 27.4985 502.342 27.2029 501.704 27.1759C500.026 27.105 498.476 27.2871 496.885 27.8432C491.767 29.6325 490.321 33.4453 491.327 38.9085C491.985 42.482 493.543 46.8415 495.641 49.8423C497.869 53.029 499.223 56.2173 502.733 58.0827C506.659 60.1693 514.527 52.3768 515.627 50.1814" stroke="#B30000" stroke-width="2.73219" stroke-linecap="round"/>
<path d="M511.885 26.9041C511.668 26.1831 512.623 28.2291 513.115 28.7988C514.031 29.8586 514.736 31.025 515.36 32.2825C517.786 37.1666 519.455 42.7786 522.665 47.2168C525.578 51.2449 535.704 40.5 537.809 39.1077" stroke="#B30000" stroke-width="2.73219" stroke-linecap="round"/>
<path d="M519.486 36.108C522.709 34.5816 529.01 31.7308 532.413 30.7587" stroke="#B30000" stroke-width="2.73219" stroke-linecap="round"/>
<path d="M511.841 24.4598C514.339 24.1969 517.11 21.7646 519.492 20.9102C522.477 19.8399 525.359 18.7804 528.524 18.7804" stroke="#B30000" stroke-width="2.73219" stroke-linecap="round"/>
<path d="M555.913 9.08034C557.559 13.7295 560.556 18.9222 562.974 23.1795C565.177 27.0573 567.494 30.9183 569.866 34.6956C570.01 34.9248 571.003 36.8825 571.563 36.8409C573.531 36.6947 573.983 33.2245 574.316 31.8297C575.788 25.6556 576.796 19.7746 577.342 13.4509C577.524 11.3538 577.429 9.22491 577.194 7.15179C577.153 6.79483 576.715 6.10308 576.878 5.76393C577.036 5.43659 578.804 7.33832 578.968 7.50253C586.35 14.8949 585.485 25.4481 593.575 32.124" stroke="#B30000" stroke-width="2.73219" stroke-linecap="round"/>
<path d="M1200.07 190.129C1197.65 190.398 1199.77 194.668 1200.05 193.687C1200.39 192.475 1192.08 195.142 1195.11 199.183C1197.42 202.265 1206.5 196.342 1199.78 196.342C1197.22 196.342 1194.34 196.543 1194.34 199.953C1194.34 203.182 1200.83 202.595 1202.73 202.529C1213.82 202.14 1199.82 194.619 1196.83 199.316C1193.3 204.87 1203.12 203.945 1202.94 200.644C1202.9 199.859 1200.97 198.668 1201.03 199.688C1201.09 200.8 1202.35 201.891 1203.02 202.635C1204.76 204.584 1206.47 206.538 1207.93 208.715C1211.75 214.411 1214.42 220.765 1210.59 227.249C1205.49 235.882 1196.02 242.801 1188.6 249.393" stroke="#B30000" stroke-width="3.29594" stroke-linecap="round"/>
<path d="M1168.46 266.585H1236.99" stroke="#B30000" stroke-width="3.29594" stroke-linecap="round"/>
<path d="M996.144 71.5623C948.023 61.452 892.488 59.3514 843.429 66.3728C793.762 73.4812 735.874 92.1575 711.198 128.085C697.131 148.566 688.316 182.892 719.062 197.652C736.096 205.83 760.912 211.346 779.417 214.623C831.159 223.786 884.587 227.814 937.527 229.77C989.443 231.689 1043.12 232.035 1094.91 227.807C1125.48 225.31 1155.38 218.368 1183.52 209.013C1202.19 202.805 1224.68 195.182 1233.36 179.84C1242.98 162.823 1232.01 146.719 1217.81 133.345C1189.16 106.371 1146.45 92.6634 1103.87 83.2035C1047.21 70.6163 985.361 67.837 926.828 64.5495C889.771 62.4682 851.6 61.5239 815.263 68.6169C772.16 77.0309 729.503 101.529 707.083 131.311C699.165 141.829 693.328 154.274 702.419 165.674C725.281 194.343 777.352 208.327 816.635 217.288C875.166 230.639 936.991 237.589 997.79 241.131C1035.11 243.306 1075.15 245.586 1112.19 240.079C1162.71 232.568 1190.45 204.695 1199.61 167.497C1207.14 136.949 1182.3 112.46 1152.15 94.4239C1106.84 67.3211 1049.95 48.5256 994.132 39.0931C943.445 30.5284 891.238 25.1044 845.349 46.8773C822.359 57.7857 800.848 71.0522 779.234 83.484C764.359 92.039 750.815 101.639 740.186 113.429C737.448 116.466 728.054 125.871 734.242 129.628C738.111 131.977 744.55 132.516 749.239 133.415" stroke="#B30000" stroke-width="3.29594" stroke-linecap="round"/>
<path d="M992.153 61.904C961.889 61.904 931.616 61.6978 901.354 61.9534C858.434 62.316 813.963 62.9212 771.865 71.687C742.886 77.7211 716.016 92.6087 711.956 123.418C709.923 138.847 712.115 153.348 721.831 165.959C736.206 184.616 757.409 190.951 778.904 198.865C817.405 213.041 859.132 218.143 899.885 221.494C955.037 226.03 1010.08 225.546 1065.38 225.546C1085.8 225.546 1106.55 226.518 1126.86 223.965C1140.3 222.274 1155.72 219.909 1167.67 213.194C1181.95 205.177 1202.78 191.824 1207.28 177.521C1210.38 167.635 1210.61 159.87 1207.28 149.95C1200.36 129.385 1162.51 112.808 1143.82 103.753C1133.17 98.5912 1122.24 92.9496 1110.86 89.4741C1094.43 84.4623 1077.04 81.6283 1060.11 78.8018C1026.54 73.1952 992.579 70.3268 958.527 69.9577C927.205 69.6181 895.862 69.9083 864.538 69.9083C853.373 69.9083 841.439 68.797 830.304 70.1059C826.501 70.553 822.738 71.9063 818.961 72.5763" stroke="#B30000" stroke-width="3.29594" stroke-linecap="round"/>
<path d="M428.766 244.108C459.426 219.288 505.556 219.593 542.883 219.061C579.586 218.539 618.949 222.029 652.851 237.439" stroke="#B30000" stroke-width="3.29594" stroke-linecap="round"/>
<path d="M446.444 224.021C446.444 231.102 441.591 237.002 439.042 243.374C438.229 245.409 441.94 240.032 442.95 238.088C444.094 235.884 444.842 233.398 441.939 235.789C438.555 238.575 435.62 241.977 432.101 244.569C428.297 247.373 433.482 245.588 435.181 244.707C438.605 242.932 442.306 242.423 446.076 241.581C451.086 240.463 457.56 241.218 462.165 238.915" stroke="#B30000" stroke-width="3.29594" stroke-linecap="round"/>
<path d="M612.762 235.605C621.073 235.716 628.956 238.246 637.172 239.467C643.062 240.342 649.928 243.295 656.066 242.179C656.843 242.038 644.481 230.469 642.459 228.986C638.465 226.057 633.419 223.29 630.185 219.516C627.387 216.252 635.677 226.131 638.413 229.445C641.706 233.434 647.828 235.631 650.641 239.743C653.237 243.536 656.59 244.213 650.274 242.869C636.326 239.901 622.485 236.469 608.625 233.123" stroke="#B30000" stroke-width="3.29594" stroke-linecap="round"/>
<path d="M446.444 219.056V233.123" stroke="#B30000" stroke-width="3.29594" stroke-linecap="round"/>
<path d="M380.305 203.483C384.312 207.891 385.884 214.178 389.376 218.834" stroke="#B30000" stroke-width="3.29594" stroke-linecap="round"/>
<path d="M391.469 201.39C391.469 204.845 391.388 208.135 392.477 211.469C393.45 214.447 395.041 217.155 395.656 220.23" stroke="#B30000" stroke-width="3.29594" stroke-linecap="round"/>
<path d="M288.082 248.11C303.22 245.587 319.395 232.424 333.764 226.523C385.015 205.473 440.475 192.623 495.878 189.337C569.951 184.943 648.073 183.626 713.145 224.434C733.662 237.301 752.73 253.406 771.918 268.166" stroke="#B30000" stroke-width="3.29594" stroke-linecap="round"/>
<path d="M298.366 235.385C302.922 236.524 285.694 254.124 285.654 254.201C284.918 255.639 293.104 253.379 293.626 253.16C300.849 250.131 308.861 248.683 316.465 247.02" stroke="#B30000" stroke-width="3.29594" stroke-linecap="round"/>
<path d="M761.814 242.495C764.7 251.474 765.067 260.922 767.847 269.93C768.578 272.299 766.429 270.23 764.974 269.607C759.198 267.131 751.834 268.161 745.655 267.703" stroke="#B30000" stroke-width="3.29594" stroke-linecap="round"/>
</svg>
