<svg width="1434" height="491" viewBox="0 0 1434 491" fill="none" xmlns="http://www.w3.org/2000/svg">
<path d="M81.0394 186.147H62.7036L27.6425 141.299V186.147H11.7845V97.689H27.6425V140.555L62.0841 97.689H79.3049L44.7394 140.431L81.0394 186.147ZM169.226 141.794C169.226 148.649 168.359 154.885 166.625 160.502C164.973 166.035 162.412 170.826 158.943 174.873C155.557 178.92 151.221 182.017 145.935 184.165C140.731 186.312 134.62 187.386 127.599 187.386C120.496 187.386 114.301 186.312 109.015 184.165C103.812 181.935 99.5172 178.837 96.1308 174.873C92.7445 170.826 90.1841 165.994 88.4496 160.378C86.7977 154.761 85.9718 148.526 85.9718 141.67C85.9718 132.502 87.4585 124.532 90.4319 117.759C93.4878 110.987 98.0718 105.742 104.184 102.025C110.378 98.2259 118.225 96.3262 127.723 96.3262C137.056 96.3262 144.779 98.2259 150.891 102.025C157.002 105.742 161.586 111.028 164.642 117.883C167.698 124.656 169.226 132.626 169.226 141.794ZM102.697 141.794C102.697 148.484 103.564 154.224 105.299 159.015C107.116 163.805 109.841 167.481 113.476 170.041C117.192 172.602 121.9 173.882 127.599 173.882C133.463 173.882 138.212 172.602 141.846 170.041C145.481 167.481 148.165 163.805 149.899 159.015C151.634 154.224 152.501 148.484 152.501 141.794C152.501 131.8 150.56 123.954 146.678 118.255C142.796 112.556 136.478 109.706 127.723 109.706C121.941 109.706 117.192 110.987 113.476 113.547C109.841 116.107 107.116 119.783 105.299 124.573C103.564 129.364 102.697 135.104 102.697 141.794ZM241.707 97.689V111.069H203.921V186.147H188.063V97.689H241.707ZM315.183 97.689V172.643H326.829V210.925H311.466V186.147H254.105V210.925H238.743V172.643H245.557C248.117 167.852 250.553 162.69 252.866 157.157C255.261 151.54 257.409 145.593 259.308 139.316C261.291 133.039 262.984 126.432 264.388 119.494C265.875 112.473 266.99 105.205 267.733 97.689H315.183ZM280.618 111.193C280.122 115.653 279.296 120.526 278.14 125.812C276.983 131.098 275.579 136.508 273.927 142.042C272.358 147.576 270.582 152.986 268.6 158.272C266.618 163.475 264.512 168.265 262.282 172.643H299.449V111.193H280.618ZM395.505 186.147L387.452 162.732H354.125L346.196 186.147H329.347L361.807 97.3174H379.895L412.354 186.147H395.505ZM375.682 126.308C375.352 125.151 374.856 123.582 374.196 121.6C373.535 119.618 372.874 117.594 372.213 115.529C371.635 113.382 371.181 111.606 370.851 110.202C370.438 111.854 369.901 113.754 369.24 115.901C368.662 118.048 368.084 120.072 367.506 121.972C367.01 123.871 366.597 125.317 366.267 126.308L358.462 149.104H383.364L375.682 126.308ZM482.806 97.689C490.487 97.689 496.93 98.4324 502.133 99.9191C507.337 101.323 511.218 103.636 513.779 106.857C516.422 110.078 517.743 114.414 517.743 119.865C517.743 123.252 517.165 126.308 516.009 129.033C514.853 131.759 513.159 133.989 510.929 135.723C508.782 137.458 506.098 138.614 502.876 139.192V139.812C506.18 140.39 509.112 141.464 511.673 143.033C514.316 144.52 516.381 146.708 517.867 149.599C519.437 152.407 520.221 156.124 520.221 160.749C520.221 166.118 518.941 170.702 516.381 174.501C513.82 178.301 510.145 181.191 505.354 183.174C500.646 185.156 495.03 186.147 488.505 186.147H456.17V97.689H482.806ZM484.912 133.741C491.189 133.741 495.484 132.75 497.797 130.768C500.192 128.786 501.39 125.854 501.39 121.972C501.39 118.007 499.986 115.158 497.178 113.423C494.369 111.689 489.868 110.821 483.673 110.821H472.028V133.741H484.912ZM472.028 146.502V172.891H486.399C492.841 172.891 497.301 171.652 499.779 169.174C502.34 166.696 503.62 163.392 503.62 159.263C503.62 156.62 503.083 154.348 502.009 152.449C500.936 150.549 499.077 149.104 496.434 148.113C493.791 147.039 490.198 146.502 485.656 146.502H472.028ZM576.104 109.83C572.057 109.83 568.464 110.574 565.325 112.06C562.187 113.547 559.502 115.694 557.272 118.503C555.125 121.311 553.473 124.697 552.317 128.662C551.243 132.626 550.706 137.086 550.706 142.042C550.706 148.732 551.615 154.472 553.432 159.263C555.249 163.971 558.016 167.605 561.732 170.165C565.532 172.725 570.281 174.006 575.98 174.006C579.779 174.006 583.413 173.634 586.882 172.891C590.434 172.065 594.15 170.991 598.032 169.67V183.174C594.398 184.66 590.723 185.734 587.006 186.395C583.372 187.056 579.16 187.386 574.369 187.386C565.284 187.386 557.768 185.528 551.821 181.811C545.874 178.011 541.456 172.725 538.565 165.953C535.674 159.098 534.229 151.086 534.229 141.918C534.229 135.228 535.137 129.116 536.954 123.582C538.854 118.048 541.538 113.258 545.007 109.211C548.559 105.164 552.936 102.025 558.139 99.7952C563.343 97.5651 569.331 96.4501 576.104 96.4501C580.564 96.4501 584.941 96.987 589.236 98.0607C593.613 99.0518 597.702 100.456 601.501 102.273L596.05 115.282C592.911 113.877 589.649 112.639 586.263 111.565C582.959 110.408 579.573 109.83 576.104 109.83ZM667.382 186.147H617.082V97.689H667.382V110.945H632.94V133.493H665.152V146.75H632.94V172.767H667.382V186.147ZM623.525 80.0966C623.525 77.4536 624.227 75.5539 625.631 74.3976C627.118 73.2413 628.893 72.6631 630.958 72.6631C632.94 72.6631 634.675 73.2413 636.162 74.3976C637.731 75.5539 638.515 77.4536 638.515 80.0966C638.515 82.5744 637.731 84.4327 636.162 85.6716C634.675 86.828 632.94 87.4061 630.958 87.4061C628.893 87.4061 627.118 86.828 625.631 85.6716C624.227 84.4327 623.525 82.5744 623.525 80.0966ZM647.559 80.0966C647.559 77.4536 648.262 75.5539 649.666 74.3976C651.152 73.2413 652.928 72.6631 654.993 72.6631C656.975 72.6631 658.71 73.2413 660.196 74.3976C661.766 75.5539 662.55 77.4536 662.55 80.0966C662.55 82.5744 661.766 84.4327 660.196 85.6716C658.71 86.828 656.975 87.4061 654.993 87.4061C652.928 87.4061 651.152 86.828 649.666 85.6716C648.262 84.4327 647.559 82.5744 647.559 80.0966ZM718.348 186.147V97.689H772.86V111.069H734.206V132.998H743.746C752.253 132.998 759.067 134.113 764.188 136.343C769.391 138.573 773.149 141.67 775.462 145.635C777.775 149.599 778.931 154.101 778.931 159.139C778.931 164.755 777.733 169.587 775.338 173.634C772.943 177.681 769.185 180.778 764.064 182.926C758.943 185.073 752.295 186.147 744.118 186.147H718.348ZM743.251 173.015C749.775 173.015 754.648 171.941 757.87 169.793C761.173 167.646 762.825 164.094 762.825 159.139C762.825 155.752 761.999 153.151 760.347 151.334C758.778 149.434 756.424 148.113 753.286 147.369C750.23 146.543 746.348 146.13 741.64 146.13H734.206V173.015H743.251ZM846.564 186.147H796.264V97.689H846.564V110.945H812.122V133.493H844.334V146.75H812.122V172.767H846.564V186.147ZM903.01 109.83C898.963 109.83 895.37 110.574 892.232 112.06C889.093 113.547 886.409 115.694 884.179 118.503C882.032 121.311 880.38 124.697 879.223 128.662C878.15 132.626 877.613 137.086 877.613 142.042C877.613 148.732 878.521 154.472 880.338 159.263C882.155 163.971 884.922 167.605 888.639 170.165C892.438 172.725 897.188 174.006 902.887 174.006C906.686 174.006 910.32 173.634 913.789 172.891C917.34 172.065 921.057 170.991 924.939 169.67V183.174C921.305 184.66 917.63 185.734 913.913 186.395C910.279 187.056 906.066 187.386 901.276 187.386C892.191 187.386 884.675 185.528 878.728 181.811C872.781 178.011 868.362 172.725 865.472 165.953C862.581 159.098 861.135 151.086 861.135 141.918C861.135 135.228 862.044 129.116 863.861 123.582C865.761 118.048 868.445 113.258 871.914 109.211C875.465 105.164 879.843 102.025 885.046 99.7952C890.25 97.5651 896.238 96.4501 903.01 96.4501C907.47 96.4501 911.848 96.987 916.143 98.0607C920.52 99.0518 924.609 100.456 928.408 102.273L922.957 115.282C919.818 113.877 916.556 112.639 913.169 111.565C909.866 110.408 906.479 109.83 903.01 109.83ZM943.989 97.689H958.36V142.661C958.36 144.726 958.319 147.039 958.237 149.599C958.237 152.077 958.195 154.514 958.113 156.909C958.03 159.304 957.906 161.41 957.741 163.227C957.658 165.044 957.576 166.324 957.493 167.068H957.989L1001.85 97.689H1020.43V186.147H1006.06V141.546C1006.06 139.316 1006.1 136.88 1006.18 134.237C1006.26 131.594 1006.35 129.033 1006.43 126.556C1006.6 124.078 1006.72 121.93 1006.8 120.113C1006.97 118.214 1007.09 116.892 1007.17 116.149H1006.68L962.697 186.147H943.989V97.689ZM1075.04 186.147H1059.18V111.069H1033.78V97.689H1100.43V111.069H1075.04V186.147ZM49.819 325.147L25.5364 252.671H25.0408C25.1234 254.323 25.2473 256.677 25.4125 259.733C25.5777 262.706 25.7016 265.969 25.7842 269.52C25.9494 272.989 26.032 276.251 26.032 279.307V325.147H11.7845V236.689H33.8371L57.1285 306.192H57.6241L81.9066 236.689H103.959V325.147H88.8445V278.564C88.8445 275.756 88.8858 272.7 88.9684 269.396C89.1336 266.01 89.2575 262.83 89.3401 259.857C89.5053 256.801 89.6292 254.447 89.7118 252.795H89.2162L63.9425 325.147H49.819ZM205.885 280.794C205.885 287.649 205.018 293.885 203.284 299.502C201.632 305.035 199.071 309.826 195.602 313.873C192.216 317.92 187.88 321.017 182.594 323.165C177.391 325.312 171.279 326.386 164.258 326.386C157.155 326.386 150.961 325.312 145.675 323.165C140.471 320.935 136.176 317.837 132.79 313.873C129.404 309.826 126.843 304.994 125.109 299.378C123.457 293.761 122.631 287.526 122.631 280.67C122.631 271.502 124.118 263.532 127.091 256.759C130.147 249.987 134.731 244.742 140.843 241.025C147.037 237.226 154.884 235.326 164.382 235.326C173.715 235.326 181.438 237.226 187.55 241.025C193.662 244.742 198.245 250.028 201.301 256.883C204.357 263.656 205.885 271.626 205.885 280.794ZM139.356 280.794C139.356 287.484 140.223 293.224 141.958 298.015C143.775 302.805 146.5 306.481 150.135 309.041C153.851 311.602 158.559 312.882 164.258 312.882C170.122 312.882 174.871 311.602 178.506 309.041C182.14 306.481 184.824 302.805 186.558 298.015C188.293 293.224 189.16 287.484 189.16 280.794C189.16 270.8 187.219 262.954 183.337 257.255C179.455 251.556 173.137 248.706 164.382 248.706C158.6 248.706 153.851 249.987 150.135 252.547C146.5 255.107 143.775 258.783 141.958 263.573C140.223 268.364 139.356 274.104 139.356 280.794ZM243.859 279.431L212.391 236.689H229.116L259.717 279.555V236.689H274.584V279.555L305.185 236.689H321.91L290.442 279.307L323.397 325.147H306.052L274.584 280.299V325.147H259.717V280.299L228.125 325.147H210.78L243.859 279.431ZM385.24 325.147H334.941V236.689H385.24V249.945H350.799V272.493H383.01V285.75H350.799V311.767H385.24V325.147ZM435.74 325.147H419.882V250.069H394.485V236.689H461.138V250.069H435.74V325.147ZM506.863 325.147V236.689H575.499V325.147H559.641V250.069H522.721V325.147H506.863ZM677.614 280.794C677.614 287.649 676.746 293.885 675.012 299.502C673.36 305.035 670.8 309.826 667.331 313.873C663.944 317.92 659.608 321.017 654.322 323.165C649.119 325.312 643.007 326.386 635.986 326.386C628.883 326.386 622.689 325.312 617.403 323.165C612.199 320.935 607.904 317.837 604.518 313.873C601.132 309.826 598.571 304.994 596.837 299.378C595.185 293.761 594.359 287.526 594.359 280.67C594.359 271.502 595.846 263.532 598.819 256.759C601.875 249.987 606.459 244.742 612.571 241.025C618.766 237.226 626.612 235.326 636.11 235.326C645.443 235.326 653.166 237.226 659.278 241.025C665.39 244.742 669.974 250.028 673.03 256.883C676.086 263.656 677.614 271.626 677.614 280.794ZM611.084 280.794C611.084 287.484 611.952 293.224 613.686 298.015C615.503 302.805 618.229 306.481 621.863 309.041C625.58 311.602 630.287 312.882 635.986 312.882C641.851 312.882 646.6 311.602 650.234 309.041C653.868 306.481 656.552 302.805 658.287 298.015C660.021 293.224 660.888 287.484 660.888 280.794C660.888 270.8 658.947 262.954 655.066 257.255C651.184 251.556 644.865 248.706 636.11 248.706C630.329 248.706 625.58 249.987 621.863 252.547C618.229 255.107 615.503 258.783 613.686 263.573C611.952 268.364 611.084 274.104 611.084 280.794ZM734.484 325.147L710.202 252.671H709.706C709.789 254.323 709.913 256.677 710.078 259.733C710.243 262.706 710.367 265.969 710.449 269.52C710.615 272.989 710.697 276.251 710.697 279.307V325.147H696.45V236.689H718.502L741.794 306.192H742.289L766.572 236.689H788.624V325.147H773.51V278.564C773.51 275.756 773.551 272.7 773.634 269.396C773.799 266.01 773.923 262.83 774.005 259.857C774.171 256.801 774.294 254.447 774.377 252.795H773.881L748.608 325.147H734.484ZM890.551 280.794C890.551 287.649 889.683 293.885 887.949 299.502C886.297 305.035 883.737 309.826 880.268 313.873C876.881 317.92 872.545 321.017 867.259 323.165C862.056 325.312 855.944 326.386 848.923 326.386C841.82 326.386 835.626 325.312 830.34 323.165C825.136 320.935 820.842 317.837 817.455 313.873C814.069 309.826 811.508 304.994 809.774 299.378C808.122 293.761 807.296 287.526 807.296 280.67C807.296 271.502 808.783 263.532 811.756 256.759C814.812 249.987 819.396 244.742 825.508 241.025C831.703 237.226 839.549 235.326 849.047 235.326C858.38 235.326 866.103 237.226 872.215 241.025C878.327 244.742 882.911 250.028 885.967 256.883C889.023 263.656 890.551 271.626 890.551 280.794ZM824.021 280.794C824.021 287.484 824.889 293.224 826.623 298.015C828.44 302.805 831.166 306.481 834.8 309.041C838.517 311.602 843.224 312.882 848.923 312.882C854.788 312.882 859.537 311.602 863.171 309.041C866.805 306.481 869.489 302.805 871.224 298.015C872.958 293.224 873.825 287.484 873.825 280.794C873.825 270.8 871.885 262.954 868.003 257.255C864.121 251.556 857.802 248.706 849.047 248.706C843.266 248.706 838.517 249.987 834.8 252.547C831.166 255.107 828.44 258.783 826.623 263.573C824.889 268.364 824.021 274.104 824.021 280.794ZM972.753 325.147H956.895V290.21C951.857 291.944 947.19 293.307 942.895 294.298C938.601 295.207 934.141 295.661 929.515 295.661C921.256 295.661 914.814 293.679 910.188 289.714C905.563 285.75 903.25 280.092 903.25 272.741V236.689H919.108V268.901C919.108 273.361 920.182 276.706 922.33 278.936C924.56 281.166 928.194 282.281 933.232 282.281C937.279 282.281 941.078 281.868 944.63 281.042C948.264 280.216 952.352 279.06 956.895 277.573V236.689H972.753V325.147ZM995.772 325.147V236.689H1011.63V271.998H1022.53C1030.79 271.998 1037.48 273.154 1042.6 275.467C1047.81 277.697 1051.61 280.794 1054 284.759C1056.4 288.723 1057.59 293.183 1057.59 298.139C1057.59 303.755 1056.35 308.587 1053.88 312.634C1051.4 316.599 1047.6 319.696 1042.48 321.926C1037.36 324.073 1030.79 325.147 1022.78 325.147H995.772ZM1021.91 312.015C1028.11 312.015 1032.9 310.941 1036.28 308.793C1039.75 306.646 1041.49 303.094 1041.49 298.139C1041.49 294.752 1040.62 292.151 1038.89 290.334C1037.23 288.434 1034.84 287.113 1031.7 286.369C1028.64 285.543 1024.84 285.13 1020.3 285.13H1011.63V312.015H1021.91ZM43.5005 464.147H27.6425V389.069H2.24495V375.689H68.8981V389.069H43.5005V464.147ZM159.063 419.794C159.063 426.649 158.196 432.885 156.462 438.502C154.81 444.035 152.249 448.826 148.781 452.873C145.394 456.92 141.058 460.017 135.772 462.165C130.569 464.312 124.457 465.386 117.436 465.386C110.333 465.386 104.139 464.312 98.8526 462.165C93.6492 459.935 89.3543 456.837 85.9679 452.873C82.5816 448.826 80.0212 443.994 78.2867 438.378C76.6348 432.761 75.8089 426.526 75.8089 419.67C75.8089 410.502 77.2956 402.532 80.269 395.759C83.3249 388.987 87.9089 383.742 94.0208 380.025C100.215 376.226 108.062 374.326 117.56 374.326C126.893 374.326 134.616 376.226 140.728 380.025C146.84 383.742 151.424 389.028 154.479 395.883C157.535 402.656 159.063 410.626 159.063 419.794ZM92.5341 419.794C92.5341 426.484 93.4014 432.224 95.1358 437.015C96.9529 441.805 99.6785 445.481 103.313 448.041C107.029 450.602 111.737 451.882 117.436 451.882C123.3 451.882 128.049 450.602 131.684 448.041C135.318 445.481 138.002 441.805 139.736 437.015C141.471 432.224 142.338 426.484 142.338 419.794C142.338 409.8 140.397 401.954 136.515 396.255C132.633 390.556 126.315 387.706 117.56 387.706C111.778 387.706 107.029 388.987 103.313 391.547C99.6785 394.107 96.9529 397.783 95.1358 402.573C93.4014 407.364 92.5341 413.104 92.5341 419.794ZM177.9 464.147V375.689H193.758V410.998H204.66C212.919 410.998 219.609 412.154 224.73 414.467C229.934 416.697 233.733 419.794 236.128 423.759C238.523 427.723 239.721 432.183 239.721 437.139C239.721 442.755 238.482 447.587 236.004 451.634C233.527 455.599 229.727 458.696 224.606 460.926C219.486 463.073 212.919 464.147 204.908 464.147H177.9ZM204.041 451.015C210.235 451.015 215.026 449.941 218.412 447.793C221.881 445.646 223.615 442.094 223.615 437.139C223.615 433.752 222.748 431.151 221.014 429.334C219.362 427.434 216.966 426.113 213.828 425.369C210.772 424.543 206.973 424.13 202.43 424.13H193.758V451.015H204.041ZM324.667 464.147H308.809V389.069H284.774C284.278 393.199 283.741 397.618 283.163 402.326C282.585 406.951 281.966 411.617 281.305 416.325C280.644 420.95 279.983 425.369 279.323 429.581C278.662 433.711 278.001 437.345 277.34 440.484C276.267 445.77 274.862 450.313 273.128 454.112C271.476 457.829 269.164 460.637 266.19 462.536C263.299 464.436 259.541 465.386 254.916 465.386C253.347 465.386 251.819 465.262 250.332 465.014C248.845 464.766 247.483 464.436 246.244 464.023V450.891C247.317 451.304 248.391 451.634 249.465 451.882C250.539 452.13 251.695 452.253 252.934 452.253C254.916 452.253 256.485 451.551 257.642 450.147C258.881 448.743 259.913 446.678 260.739 443.953C261.565 441.145 262.35 437.717 263.093 433.67C263.588 431.522 264.125 428.549 264.703 424.75C265.282 420.95 265.942 416.49 266.686 411.37C267.512 406.249 268.338 400.674 269.164 394.644C270.072 388.532 270.898 382.214 271.641 375.689H324.667V464.147ZM417.02 464.147H398.684L363.623 419.299V464.147H347.765V375.689H363.623V418.555L398.065 375.689H415.286L380.72 418.431L417.02 464.147ZM505.207 419.794C505.207 426.649 504.34 432.885 502.605 438.502C500.954 444.035 498.393 448.826 494.924 452.873C491.538 456.92 487.202 460.017 481.916 462.165C476.712 464.312 470.6 465.386 463.58 465.386C456.477 465.386 450.282 464.312 444.996 462.165C439.793 459.935 435.498 456.837 432.112 452.873C428.725 448.826 426.165 443.994 424.43 438.378C422.779 432.761 421.953 426.526 421.953 419.67C421.953 410.502 423.439 402.532 426.413 395.759C429.469 388.987 434.053 383.742 440.165 380.025C446.359 376.226 454.206 374.326 463.704 374.326C473.037 374.326 480.759 376.226 486.871 380.025C492.983 383.742 497.567 389.028 500.623 395.883C503.679 402.656 505.207 410.626 505.207 419.794ZM438.678 419.794C438.678 426.484 439.545 432.224 441.28 437.015C443.097 441.805 445.822 445.481 449.456 448.041C453.173 450.602 457.881 451.882 463.58 451.882C469.444 451.882 474.193 450.602 477.827 448.041C481.461 445.481 484.146 441.805 485.88 437.015C487.615 432.224 488.482 426.484 488.482 419.794C488.482 409.8 486.541 401.954 482.659 396.255C478.777 390.556 472.459 387.706 463.704 387.706C457.922 387.706 453.173 388.987 449.456 391.547C445.822 394.107 443.097 397.783 441.28 402.573C439.545 407.364 438.678 413.104 438.678 419.794ZM576.42 387.83C572.373 387.83 568.491 388.367 564.774 389.441C561.058 390.515 557.547 391.754 554.244 393.158L548.792 380.273C552.84 378.456 557.176 377.052 561.801 376.061C566.509 374.987 571.464 374.45 576.668 374.45C583.441 374.45 589.387 375.524 594.508 377.671C599.629 379.736 603.924 382.751 607.393 386.715C610.944 390.597 613.587 395.305 615.322 400.839C617.139 406.373 618.047 412.567 618.047 419.422C618.047 428.756 616.478 436.891 613.34 443.829C610.284 450.684 605.576 456.011 599.216 459.811C592.939 463.528 584.969 465.386 575.305 465.386C570.184 465.386 565.683 465.056 561.801 464.395C557.919 463.734 553.996 462.66 550.031 461.174V447.67C554.326 448.991 558.373 450.065 562.173 450.891C566.055 451.634 569.978 452.006 573.942 452.006C578.32 452.006 582.16 451.428 585.464 450.271C588.85 449.115 591.659 447.463 593.889 445.316C596.201 443.086 597.977 440.319 599.216 437.015C600.455 433.711 601.157 429.871 601.322 425.493H561.182V412.237H601.198C601.033 408.355 600.29 404.927 598.968 401.954C597.729 398.98 596.036 396.461 593.889 394.397C591.741 392.249 589.181 390.639 586.207 389.565C583.317 388.408 580.054 387.83 576.42 387.83ZM665.011 464.147H649.153V389.069H623.755V375.689H690.408V389.069H665.011V464.147ZM780.574 419.794C780.574 426.649 779.706 432.885 777.972 438.502C776.32 444.035 773.76 448.826 770.291 452.873C766.904 456.92 762.568 460.017 757.282 462.165C752.079 464.312 745.967 465.386 738.946 465.386C731.843 465.386 725.649 464.312 720.363 462.165C715.159 459.935 710.864 456.837 707.478 452.873C704.092 448.826 701.531 443.994 699.797 438.378C698.145 432.761 697.319 426.526 697.319 419.67C697.319 410.502 698.806 402.532 701.779 395.759C704.835 388.987 709.419 383.742 715.531 380.025C721.725 376.226 729.572 374.326 739.07 374.326C748.403 374.326 756.126 376.226 762.238 380.025C768.35 383.742 772.934 389.028 775.99 395.883C779.046 402.656 780.574 410.626 780.574 419.794ZM714.044 419.794C714.044 426.484 714.911 432.224 716.646 437.015C718.463 441.805 721.189 445.481 724.823 448.041C728.539 450.602 733.247 451.882 738.946 451.882C744.81 451.882 749.56 450.602 753.194 448.041C756.828 445.481 759.512 441.805 761.247 437.015C762.981 432.224 763.848 426.484 763.848 419.794C763.848 409.8 761.907 401.954 758.025 396.255C754.144 390.556 747.825 387.706 739.07 387.706C733.289 387.706 728.539 388.987 724.823 391.547C721.189 394.107 718.463 397.783 716.646 402.573C714.911 407.364 714.044 413.104 714.044 419.794Z" fill="black"/>
<path d="M496.954 482.629C560.37 482.629 624.361 485.286 687.639 480.812C696.868 480.16 691.205 480.114 687.43 480.114C678.276 480.114 669.123 480.114 659.969 480.114C636.841 480.114 613.713 480.114 590.585 480.114C579.444 480.114 546.353 478.766 557.185 481.371C577.127 486.167 599.065 486.11 619.373 486.821C646.285 487.764 673.222 487.66 700.147 487.66C725.301 487.66 649.834 487.317 624.683 487.73C616.713 487.86 608.581 488.036 600.647 488.918C597.267 489.293 607.448 488.918 610.848 488.918C640.801 488.918 670.753 488.918 700.706 488.918" stroke="#B30000" stroke-width="3" stroke-linecap="round"/>
<path d="M789.989 362.519C789.989 366.873 789.965 371.161 789.491 375.5C788.714 382.626 787.652 389.728 786.927 396.856C785.387 411.984 785.421 427.209 785.252 442.395C785.205 446.602 784.796 450.722 784.44 454.905C784.274 456.865 784.297 457.162 784.336 455.167C784.415 451.115 785.453 447.083 786.22 443.128C787.63 435.863 788.636 428.514 790.303 421.3C793.539 407.294 797.981 393.56 800.772 379.452C801.029 378.148 804.085 366.529 800.117 370.841C797.885 373.267 797.447 377.614 796.741 380.63C793.935 392.609 792.487 404.687 791.768 416.956C791.039 429.411 790.673 441.887 789.727 454.329C789.488 457.473 789.418 459.078 788.104 455.795" stroke="#B30000" stroke-width="3" stroke-linecap="round"/>
<path d="M823.656 388.165C820.417 381.392 821.713 375.131 830.042 373.3C838.193 371.507 848.823 371.782 856.528 375.236C861.607 377.513 861.2 381.155 858.831 385.653C854.428 394.009 847.455 400.686 841.662 408.03C834.915 416.583 827.704 426.4 824.179 436.845C822.7 441.228 822.714 445.74 822.714 450.297C822.714 453.178 822.394 449.299 822.243 448.465" stroke="#B30000" stroke-width="3" stroke-linecap="round"/>
<path d="M815.647 475.317C815.863 479.204 820.627 478.592 822.4 476.181C823.555 474.61 824.201 471.446 823.447 469.559C822.384 466.903 819.109 468.732 818.212 470.502C817.175 472.55 815.516 482.898 819.861 478.824C820.241 478.468 821.512 476.315 820.62 475.893C819.186 475.214 816.69 477.399 815.647 478.144" stroke="#B30000" stroke-width="3" stroke-linecap="round"/>
<path d="M786.691 473.225C785.483 473.286 782.797 474.107 784.126 475.816C785.188 477.181 789.13 476.641 790.617 476.418C793.428 475.997 791.711 472.226 790.879 470.608C789.036 467.026 785.149 467.105 781.718 468.462C778.569 469.708 774.002 474.602 779.311 476.261C780.556 476.65 789.754 478.648 789.518 476.523C789.117 472.914 777.784 483.356 786.691 478.407" stroke="#B30000" stroke-width="3" stroke-linecap="round"/>
<path d="M389.046 72.3081C394.08 77.0907 396.729 83.0559 398.133 89.9632C399.682 97.5821 400.145 120.975 400.145 113.201C400.145 104.095 407.077 95.459 413.971 90.0931C429.298 78.1625 452.275 77.6625 470.831 76.3973" stroke="#B30000" stroke-width="3" stroke-linecap="round"/>
<path d="M421.227 41.0511C422.349 49.0037 426.447 55.1915 430.54 61.865" stroke="#B30000" stroke-width="2.48686" stroke-linecap="round"/>
<path d="M422.464 40.678C423.241 39.2312 424.589 37.0542 426.022 36.2495C427.905 35.1923 431.822 38.8916 432.793 40.1135C435.417 43.4164 433.154 48.092 431.646 51.2953C430.096 54.5885 426.206 53.0858 431.948 50.8668C432.706 49.9705 434.909 49.7491 435.924 49.4429C438.728 48.5976 441.642 47.642 444.594 47.5414C448.752 47.3996 446.539 52.2563 445.762 54.6505C444.802 57.61 443.23 60.3157 441.109 62.5965C439.759 64.048 436.977 66.6734 434.831 66.8328C433.514 66.9307 431.159 64.6908 430.388 63.5983" stroke="#B30000" stroke-width="2.48686" stroke-linecap="round"/>
<path d="M458.73 25.0577C458.167 25.2178 457.453 24.9486 456.872 24.9241C455.345 24.8595 453.935 25.0253 452.487 25.5314C447.828 27.1601 446.512 30.6306 447.428 35.6032C448.027 38.8559 449.444 42.8239 451.354 45.5553C453.382 48.4558 454.615 51.3579 457.809 53.0558C461.383 54.955 468.544 47.8622 469.545 45.8639" stroke="#B30000" stroke-width="2.48686" stroke-linecap="round"/>
<path d="M466.139 24.6766C465.941 24.0203 466.811 25.8826 467.259 26.4012C468.093 27.3658 468.734 28.4275 469.303 29.572C471.51 34.0176 473.03 39.1257 475.951 43.1654C478.602 46.8319 487.82 37.0517 489.736 35.7844" stroke="#B30000" stroke-width="2.48686" stroke-linecap="round"/>
<path d="M473.059 33.0541C475.992 31.6647 481.727 29.0699 484.824 28.1851" stroke="#B30000" stroke-width="2.48686" stroke-linecap="round"/>
<path d="M466.099 22.4518C468.373 22.2125 470.895 19.9986 473.063 19.2209C475.78 18.2467 478.404 17.2823 481.284 17.2823" stroke="#B30000" stroke-width="2.48686" stroke-linecap="round"/>
<path d="M506.214 8.45326C507.713 12.685 510.441 17.4114 512.642 21.2865C514.647 24.8161 516.756 28.3304 518.915 31.7686C519.046 31.9772 519.95 33.7591 520.46 33.7212C522.251 33.5881 522.662 30.4296 522.965 29.16C524.305 23.5402 525.223 18.1873 525.72 12.4314C525.885 10.5226 525.799 8.58485 525.585 6.69788C525.548 6.37297 525.149 5.74333 525.298 5.43463C525.441 5.13668 527.05 6.86766 527.2 7.01712C533.918 13.7458 533.131 23.3514 540.495 29.4278" stroke="#B30000" stroke-width="2.48686" stroke-linecap="round"/>
<path d="M1092.54 173.246C1090.33 173.491 1092.26 177.377 1092.51 176.484C1092.83 175.381 1085.26 177.808 1088.02 181.487C1090.12 184.292 1098.39 178.901 1092.27 178.901C1089.94 178.901 1087.31 179.084 1087.31 182.188C1087.31 185.126 1093.23 184.593 1094.95 184.532C1105.05 184.178 1092.31 177.333 1089.59 181.608C1086.37 186.663 1095.31 185.821 1095.15 182.816C1095.11 182.102 1093.36 181.018 1093.41 181.946C1093.46 182.959 1094.61 183.951 1095.22 184.629C1096.81 186.403 1098.36 188.181 1099.69 190.163C1103.16 195.347 1105.59 201.13 1102.11 207.032C1097.46 214.89 1088.85 221.188 1082.09 227.188" stroke="#B30000" stroke-width="3" stroke-linecap="round"/>
<path d="M1063.76 242.837H1126.14" stroke="#B30000" stroke-width="3" stroke-linecap="round"/>
<path d="M906.917 65.325C863.117 56.1225 812.569 54.2105 767.914 60.6015C722.707 67.0716 670.017 84.0709 647.556 116.773C634.752 135.415 626.729 166.658 654.714 180.093C670.219 187.536 692.807 192.558 709.65 195.54C756.746 203.881 805.377 207.547 853.563 209.328C900.818 211.074 949.679 211.389 996.811 207.54C1024.64 205.268 1051.85 198.949 1077.47 190.434C1094.46 184.784 1114.93 177.845 1122.83 163.88C1131.59 148.391 1121.61 133.733 1108.68 121.56C1082.6 97.0078 1043.73 84.5315 1004.97 75.9209C953.399 64.464 897.102 61.9342 843.825 58.9419C810.096 57.0475 775.352 56.1879 742.278 62.6441C703.045 70.3026 664.218 92.6013 643.811 119.709C636.604 129.282 631.291 140.61 639.566 150.986C660.375 177.081 707.771 189.81 743.526 197.966C796.802 210.118 853.076 216.444 908.415 219.668C942.386 221.647 978.834 223.723 1012.54 218.711C1058.53 211.874 1083.77 186.504 1092.12 152.646C1098.97 124.841 1076.36 102.551 1048.92 86.1339C1007.67 61.4646 955.896 44.3567 905.086 35.7712C858.95 27.9755 811.431 23.0385 769.662 42.8565C748.736 52.7854 729.157 64.8607 709.483 76.1762C695.945 83.9631 683.616 92.7011 673.942 103.432C671.449 106.197 662.899 114.758 668.532 118.177C672.053 120.315 677.914 120.806 682.182 121.624" stroke="#B30000" stroke-width="3" stroke-linecap="round"/>
<path d="M903.284 56.5339C875.738 56.5339 848.183 56.3462 820.638 56.5789C781.572 56.9089 741.094 57.4598 702.776 65.4385C676.399 70.9308 651.942 84.4816 648.247 112.525C646.396 126.568 648.391 139.768 657.235 151.246C670.319 168.228 689.618 173.994 709.183 181.197C744.228 194.1 782.208 198.744 819.301 201.795C869.501 205.923 919.603 205.482 969.936 205.482C988.519 205.482 1007.41 206.367 1025.89 204.043C1038.13 202.505 1052.17 200.352 1063.05 194.239C1076.04 186.942 1095 174.789 1099.09 161.769C1101.92 152.771 1102.13 145.704 1099.09 136.675C1092.8 117.955 1058.34 102.868 1041.34 94.6256C1031.64 89.927 1021.7 84.792 1011.33 81.6285C996.379 77.0667 980.549 74.4872 965.142 71.9145C934.582 66.8113 903.672 64.2004 872.678 63.8644C844.168 63.5554 815.639 63.8195 787.128 63.8195C776.966 63.8195 766.104 62.8079 755.968 63.9994C752.507 64.4063 749.081 65.6381 745.643 66.248" stroke="#B30000" stroke-width="3" stroke-linecap="round"/>
<path d="M390.484 222.378C418.391 199.786 460.379 200.064 494.355 199.58C527.762 199.105 563.591 202.281 594.448 216.307" stroke="#B30000" stroke-width="3" stroke-linecap="round"/>
<path d="M406.574 204.094C406.574 210.54 402.158 215.91 399.838 221.71C399.097 223.562 402.475 218.668 403.394 216.898C404.436 214.892 405.116 212.63 402.474 214.806C399.394 217.342 396.722 220.438 393.52 222.798C390.057 225.349 394.777 223.725 396.323 222.923C399.44 221.307 402.808 220.844 406.24 220.078C410.8 219.06 416.692 219.747 420.884 217.651" stroke="#B30000" stroke-width="3" stroke-linecap="round"/>
<path d="M557.959 214.639C565.524 214.74 572.699 217.042 580.177 218.153C585.538 218.95 591.788 221.638 597.374 220.622C598.082 220.493 586.83 209.964 584.989 208.613C581.354 205.948 576.761 203.429 573.817 199.994C571.271 197.023 578.816 206.015 581.307 209.032C584.304 212.662 589.876 214.662 592.437 218.404C594.8 221.858 597.852 222.473 592.102 221.25C579.407 218.549 566.809 215.424 554.193 212.379" stroke="#B30000" stroke-width="3" stroke-linecap="round"/>
<path d="M406.574 199.576V212.379" stroke="#B30000" stroke-width="3" stroke-linecap="round"/>
<path d="M346.374 185.401C350.021 189.412 351.452 195.135 354.63 199.373" stroke="#B30000" stroke-width="3" stroke-linecap="round"/>
<path d="M356.536 183.495C356.536 186.64 356.462 189.635 357.453 192.669C358.339 195.38 359.787 197.845 360.347 200.644" stroke="#B30000" stroke-width="3" stroke-linecap="round"/>
<path d="M262.432 226.021C276.211 223.724 290.933 211.743 304.012 206.372C350.661 187.212 401.141 175.516 451.57 172.525C518.991 168.525 590.099 167.327 649.328 204.47C668.003 216.182 685.359 230.841 702.824 244.275" stroke="#B30000" stroke-width="3" stroke-linecap="round"/>
<path d="M271.792 214.438C275.939 215.475 260.258 231.494 260.222 231.565C259.552 232.873 267.003 230.816 267.478 230.617C274.053 227.86 281.344 226.542 288.266 225.028" stroke="#B30000" stroke-width="3" stroke-linecap="round"/>
<path d="M693.627 220.91C696.254 229.082 696.588 237.682 699.118 245.881C699.784 248.038 697.828 246.154 696.504 245.587C691.246 243.334 684.543 244.271 678.919 243.855" stroke="#B30000" stroke-width="3" stroke-linecap="round"/>
</svg>
