<svg width="495" height="218" viewBox="0 0 495 218" fill="none" xmlns="http://www.w3.org/2000/svg">
<path d="M459.535 146.246C457.33 146.491 459.256 150.377 459.511 149.484C459.826 148.381 452.257 150.808 455.016 154.487C457.12 157.292 465.386 151.901 459.269 151.901C456.941 151.901 454.315 152.084 454.315 155.188C454.315 158.126 460.228 157.593 461.952 157.532C472.05 157.178 459.307 150.333 456.587 154.608C453.37 159.663 462.312 158.821 462.145 155.816C462.106 155.102 460.356 154.018 460.405 154.946C460.459 155.959 461.612 156.951 462.218 157.629C463.805 159.403 465.361 161.181 466.689 163.163C470.161 168.347 472.592 174.13 469.106 180.032C464.464 187.89 455.845 194.188 449.095 200.188" stroke="#B30000" stroke-width="3" stroke-linecap="round"/>
<path d="M430.761 215.837H493.138" stroke="#B30000" stroke-width="3" stroke-linecap="round"/>
<path d="M273.917 38.325C230.117 29.1225 179.569 27.2105 134.914 33.6015C89.7074 40.0716 37.0171 57.0709 14.5563 89.7728C1.75231 108.415 -6.2706 139.658 21.7145 153.093C37.2189 160.536 59.807 165.558 76.6497 168.54C123.746 176.881 172.377 180.547 220.563 182.328C267.818 184.074 316.679 184.389 363.811 180.54C391.641 178.268 418.851 171.949 444.466 163.434C461.463 157.784 481.935 150.845 489.829 136.88C498.586 121.391 488.608 106.733 475.679 94.5601C449.605 70.0078 410.725 57.5315 371.968 48.9209C320.399 37.464 264.102 34.9342 210.825 31.9419C177.096 30.0475 142.352 29.1879 109.278 35.6441C70.0447 43.3026 31.2179 65.6013 10.8107 92.709C3.60359 102.282 -1.70901 113.61 6.56569 123.986C27.3748 150.081 74.7707 162.81 110.526 170.966C163.802 183.118 220.076 189.444 275.415 192.668C309.386 194.647 345.834 196.723 379.543 191.711C425.528 184.874 450.772 159.504 459.116 125.646C465.967 97.8406 443.362 75.5505 415.917 59.1339C374.675 34.4646 322.896 17.3567 272.086 8.77122C225.95 0.97549 178.431 -3.9615 136.662 15.8565C115.736 25.7854 96.1572 37.8607 76.4833 49.1762C62.9446 56.9631 50.6161 65.7011 40.9418 76.4321C38.4491 79.1971 29.8992 87.7576 35.5315 91.1771C39.0532 93.3151 44.9135 93.8056 49.1821 94.6239" stroke="#B30000" stroke-width="3" stroke-linecap="round"/>
<path d="M270.284 29.5339C242.738 29.5339 215.183 29.3462 187.638 29.5789C148.572 29.9089 108.094 30.4598 69.7759 38.4385C43.3988 43.9308 18.9422 57.4816 15.2468 85.5246C13.3961 99.5682 15.3914 112.768 24.2351 124.246C37.319 141.228 56.6178 146.994 76.1829 154.197C111.228 167.1 149.208 171.744 186.301 174.795C236.501 178.923 286.603 178.482 336.936 178.482C355.519 178.482 374.414 179.367 392.894 177.043C405.132 175.505 419.165 173.352 430.046 167.239C443.036 159.942 462.004 147.789 466.091 134.769C468.916 125.771 469.125 118.704 466.091 109.675C459.801 90.9554 425.345 75.8676 408.336 67.6256C398.639 62.927 388.695 57.792 378.328 54.6285C363.379 50.0667 347.549 47.4872 332.142 44.9145C301.582 39.8113 270.672 37.2004 239.678 36.8644C211.168 36.5554 182.639 36.8195 154.128 36.8195C143.966 36.8195 133.104 35.8079 122.968 36.9994C119.507 37.4063 116.081 38.6381 112.643 39.248" stroke="#B30000" stroke-width="3" stroke-linecap="round"/>
</svg>
