<svg width="153" height="35" viewBox="0 0 153 35" fill="none" xmlns="http://www.w3.org/2000/svg">
<path d="M30.4027 17.9089H25.1688V25.1948H30.373C31.4832 25.1948 32.4349 24.8974 33.2279 24.3026C34.0209 23.7078 34.4174 22.7859 34.4174 21.5369C34.4174 20.2483 34.0308 19.3264 33.2576 18.7713C32.4646 18.1963 31.513 17.9089 30.4027 17.9089ZM25.1985 9.22525V15.4703H30.6704C31.8599 15.4703 32.9602 15.6983 33.9713 16.1543C34.9626 16.6103 35.7556 17.2943 36.3504 18.2062C36.9452 19.138 37.2426 20.2681 37.2426 21.5964C37.2426 22.9247 36.9452 24.0449 36.3504 24.9568C35.7556 25.8688 34.9626 26.5528 33.9713 27.0088C32.9602 27.4648 31.8599 27.6928 30.6704 27.6928H22.5815V6.63801H36.6478V9.22525H25.1985ZM54.3345 27.6333H41.6957V6.63801H54.0371V9.07655H44.3126V15.6487H53.1449V18.0873H44.3126V25.1948H54.3345V27.6333ZM69.1395 28.0496C67.0975 28.01 65.2835 27.5243 63.6974 26.5925C62.1312 25.6805 60.902 24.4017 60.0098 22.7562C59.1177 21.1305 58.6716 19.2669 58.6716 17.1654C58.6716 15.0837 59.1177 13.2201 60.0098 11.5746C60.8822 9.94888 62.1014 8.67013 63.6677 7.73833C65.2537 6.80652 67.0182 6.34062 68.9611 6.34062C71.1221 6.34062 72.9956 6.81644 74.5817 7.76807C76.1677 8.75934 77.3275 10.1273 78.061 11.872L75.9199 13.0912C75.2855 11.7233 74.4032 10.6626 73.2732 9.90923C72.1035 9.15586 70.6958 8.77917 69.0503 8.77917C67.6823 8.77917 66.4234 9.11621 65.2735 9.79028C64.1038 10.4643 63.1819 11.4457 62.5079 12.7344C61.814 14.023 61.467 15.51 61.467 17.1951C61.467 18.8803 61.814 20.3672 62.5079 21.6559C63.1819 22.9446 64.1038 23.9259 65.2735 24.6C66.4432 25.2939 67.7022 25.6408 69.0503 25.6408C70.7157 25.6408 72.1431 25.2542 73.3326 24.481C74.4825 23.7475 75.3747 22.6868 76.0091 21.299L78.18 22.5183C77.4266 24.2828 76.2569 25.6507 74.6709 26.6222C73.0848 27.5738 71.3203 28.0496 69.3774 28.0496H69.1395ZM99.6911 27.6333H97.2228V11.1285L85.6248 27.6333H83.1863V6.63801H85.6545V23.2915L97.4012 6.63801H99.6911V27.6333ZM105.385 27.6333V6.63801H108.002V25.165H114.426V6.63801H117.043V25.165H123.437V6.63801H126.054V27.6333H105.385ZM130.412 27.6928V6.63801H133.029V15.4703H138.501C139.691 15.4703 140.791 15.6983 141.802 16.1543C142.793 16.6103 143.586 17.2943 144.181 18.2062C144.776 19.138 145.073 20.2681 145.073 21.5964C145.073 22.9247 144.776 24.0449 144.181 24.9568C143.586 25.8688 142.793 26.5528 141.802 27.0088C140.791 27.4648 139.691 27.6928 138.501 27.6928H130.412ZM138.233 17.9089H132.999V25.1948H138.204C139.314 25.1948 140.266 24.8974 141.059 24.3026C141.852 23.7078 142.248 22.7859 142.248 21.5369C142.248 20.2483 141.861 19.3264 141.088 18.7713C140.295 18.1963 139.344 17.9089 138.233 17.9089Z" fill="black"/>
<path d="M11.9106 22.4517C11.5222 21.6802 13.2943 22.028 13.3797 22.028C18.7665 22.028 24.1534 22.028 29.5402 22.028C60.6766 22.028 91.8332 21.5281 122.965 22.4517C130.932 22.6881 144.116 19.9512 151.826 24.5465C153.783 25.7128 147.645 23.752 145.555 23.3461C132.653 20.8403 119.694 19.7093 106.694 19.1565C75.3076 17.8217 43.8712 18.6812 12.4951 20.0744C3.24402 20.4852 -5.58166 19.6059 9.73056 20.6158C34.6621 22.26 58.865 24.3952 83.7719 19.839C99.2099 17.015 114.421 12.7199 129.915 10.5889" stroke="#AE0000" stroke-width="1.38958" stroke-linecap="round"/>
</svg>
