<svg width="1290" height="708" viewBox="0 0 1290 708" fill="none" xmlns="http://www.w3.org/2000/svg">
<rect x="0.271484" y="0.736084" width="1289.46" height="706.606" fill="white"/>
<line x1="0.271484" y1="170.914" x2="1289.73" y2="170.914" stroke="black" stroke-width="1.48066"/>
<path d="M1087.23 655.851C1086.72 655.784 1086.21 656.509 1085.79 656.828C1085.03 657.405 1084.27 657.893 1083.56 658.591C1083.12 659.034 1082.33 659.345 1081.82 659.733C1081.37 660.071 1080.71 660.45 1080.35 660.937C1079.69 661.802 1078.97 662.577 1078.33 663.443C1077.71 664.279 1077.47 664.874 1077.59 665.924C1077.64 666.372 1078.3 667.128 1078.58 667.337C1079.03 667.674 1080.03 668.096 1080.62 667.943C1081.56 667.701 1082.39 668.034 1083.3 667.349C1083.73 667.024 1083.9 666.6 1084.23 666.229C1084.54 665.885 1085.04 665.732 1085.31 665.353C1085.75 664.709 1086.57 664.179 1087.14 663.748C1087.7 663.329 1088.23 662.878 1088.79 662.456C1089.73 661.75 1090.7 660.782 1091.37 659.702C1091.97 658.753 1093.19 658.294 1093.54 657.058C1093.67 656.604 1093.99 656.274 1094.11 655.827C1094.28 655.256 1094.4 654.755 1094.48 654.179C1094.62 653.184 1094.68 652.456 1094.55 651.544C1094.48 650.991 1093.88 649.751 1093.46 649.553C1092.91 649.297 1092.47 648.719 1091.84 648.507C1091.16 648.277 1090.45 648.112 1089.76 647.916C1088.85 647.657 1087.69 647.966 1086.76 648.311C1085.65 648.724 1084.61 649.337 1083.65 650.279C1082.96 650.958 1082.11 651.891 1081.31 652.271C1080.8 652.515 1080.29 653.091 1079.81 653.45C1079.27 653.858 1078.62 654.163 1078.14 654.735C1077.88 655.05 1077.49 655.23 1077.21 655.564C1077.02 655.799 1076.51 656.215 1076.26 656.402C1075.34 657.093 1074.51 658.123 1073.72 659.053C1072.92 659.992 1072.61 661.004 1072.12 662.192C1071.75 663.082 1071.37 664.192 1071.31 665.116C1071.16 667.056 1071.21 669.151 1071.58 670.922C1071.69 671.472 1071.76 672.113 1071.95 672.601C1072.12 673.037 1072.47 673.243 1072.68 673.647C1073.2 674.681 1074.38 675.23 1075.32 675.498C1075.93 675.671 1076.43 676.107 1077.04 676.28C1077.61 676.441 1077.94 676.242 1078.5 676.403C1080.11 676.858 1081.63 676.177 1083.16 675.021C1083.66 674.643 1084.24 674.287 1084.67 673.754C1084.96 673.39 1085.33 672.885 1085.68 672.64C1086.4 672.144 1087.08 671.591 1087.72 670.92C1088.16 670.457 1088.53 670.222 1089.02 669.855" stroke="#B30000" stroke-width="2.22098" stroke-linecap="round"/>
<path d="M1269.76 650.331C1270.72 648.253 1274.55 646.657 1276.74 646.657C1278.23 646.657 1277.49 649.373 1277.19 650.166C1275.82 653.865 1271.99 656.569 1270.18 660.113C1268.79 662.824 1269.14 664.798 1269.39 667.79" stroke="#B30000" stroke-width="2.22098" stroke-linecap="round"/>
<path d="M1269.39 676.334C1269.44 676.717 1269.76 676.757 1269.76 676.334C1269.76 675.802 1269.29 676.058 1269.41 676.499C1269.49 676.773 1269.39 676.727 1269.39 676.705" stroke="#B30000" stroke-width="2.22098" stroke-linecap="round"/>
<path d="M1035.88 676.74C1036.57 677.514 1036.75 676.397 1036.75 677.603" stroke="#B30000" stroke-width="2.22098" stroke-linecap="round"/>
<path d="M1043.56 676.308C1044.26 676.396 1043.99 678.713 1043.99 677.171" stroke="#B30000" stroke-width="2.22098" stroke-linecap="round"/>
<path d="M1050.85 676.955C1050.9 677.353 1050.99 677.241 1051.28 677.387" stroke="#B30000" stroke-width="2.22098" stroke-linecap="round"/>
<rect x="1113.27" y="639.373" width="143.797" height="44.6328" fill="#EAEAEA"/>
</svg>
