<svg width="547" height="548" viewBox="0 0 547 548" fill="none" xmlns="http://www.w3.org/2000/svg">
<rect x="476.853" y="70.0066" width="68.0198" height="68.0198" fill="#F3F3F3" stroke="black" stroke-width="2.42928"/>
<rect x="476.853" y="138.021" width="68.0198" height="68.0198" fill="#F3F3F3" stroke="black" stroke-width="2.42928"/>
<rect x="476.853" y="206.072" width="68.0198" height="68.0198" fill="#F3F3F3" stroke="black" stroke-width="2.42928"/>
<rect x="476.853" y="274.064" width="68.0198" height="68.0198" fill="#F3F3F3" stroke="black" stroke-width="2.42928"/>
<rect x="476.853" y="342.077" width="68.0198" height="68.0198" fill="#F3F3F3" stroke="black" stroke-width="2.42928"/>
<rect x="476.853" y="410.129" width="68.0198" height="68.0198" fill="#F3F3F3" stroke="black" stroke-width="2.42928"/>
<rect x="476.853" y="478.082" width="68.0198" height="68.0198" fill="#F3F3F3" stroke="black" stroke-width="2.42928"/>
<rect x="476.853" y="70.0066" width="68.0198" height="68.0198" fill="#F3F3F3" stroke="black" stroke-width="2.42928"/>
<rect x="476.853" y="138.021" width="68.0198" height="68.0198" fill="#F3F3F3" stroke="black" stroke-width="2.42928"/>
<rect x="476.853" y="206.072" width="68.0198" height="68.0198" fill="#F3F3F3" stroke="black" stroke-width="2.42928"/>
<rect x="476.853" y="274.064" width="68.0198" height="68.0198" fill="#F3F3F3" stroke="black" stroke-width="2.42928"/>
<rect x="476.853" y="342.077" width="68.0198" height="68.0198" fill="#F3F3F3" stroke="black" stroke-width="2.42928"/>
<rect x="476.853" y="410.129" width="68.0198" height="68.0198" fill="#F3F3F3" stroke="black" stroke-width="2.42928"/>
<rect x="476.853" y="478.082" width="68.0198" height="68.0198" fill="#F3F3F3" stroke="black" stroke-width="2.42928"/>
<rect x="408.998" y="70.0066" width="68.0198" height="68.0198" fill="#F3F3F3" stroke="black" stroke-width="2.42928"/>
<rect x="408.998" y="138.021" width="68.0198" height="68.0198" fill="#F3F3F3" stroke="black" stroke-width="2.42928"/>
<rect x="408.998" y="206.072" width="68.0198" height="68.0198" fill="#F3F3F3" stroke="black" stroke-width="2.42928"/>
<rect x="408.998" y="274.064" width="68.0198" height="68.0198" fill="#F3F3F3" stroke="black" stroke-width="2.42928"/>
<rect x="408.998" y="342.077" width="68.0198" height="68.0198" fill="#F3F3F3" stroke="black" stroke-width="2.42928"/>
<rect x="408.998" y="410.129" width="68.0198" height="68.0198" fill="#F3F3F3" stroke="black" stroke-width="2.42928"/>
<rect x="408.998" y="478.082" width="68.0198" height="68.0198" fill="#F3F3F3" stroke="black" stroke-width="2.42928"/>
<rect x="340.972" y="70.0066" width="68.0198" height="68.0198" fill="#F3F3F3" stroke="black" stroke-width="2.42928"/>
<rect x="340.972" y="138.021" width="68.0198" height="68.0198" fill="#F3F3F3" stroke="black" stroke-width="2.42928"/>
<rect x="340.972" y="206.072" width="68.0198" height="68.0198" fill="#F3F3F3" stroke="black" stroke-width="2.42928"/>
<rect x="340.972" y="274.064" width="68.0198" height="68.0198" fill="#F3F3F3" stroke="black" stroke-width="2.42928"/>
<rect x="340.972" y="342.077" width="68.0198" height="68.0198" fill="#F3F3F3" stroke="black" stroke-width="2.42928"/>
<rect x="340.972" y="410.129" width="68.0198" height="68.0198" fill="#F3F3F3" stroke="black" stroke-width="2.42928"/>
<rect x="340.972" y="478.082" width="68.0198" height="68.0198" fill="#F3F3F3" stroke="black" stroke-width="2.42928"/>
<rect x="340.972" y="70.0066" width="68.0198" height="68.0198" fill="#F3F3F3" stroke="black" stroke-width="2.42928"/>
<rect x="340.972" y="138.021" width="68.0198" height="68.0198" fill="#F3F3F3" stroke="black" stroke-width="2.42928"/>
<rect x="340.972" y="206.072" width="68.0198" height="68.0198" fill="#F3F3F3" stroke="black" stroke-width="2.42928"/>
<rect x="340.972" y="274.064" width="68.0198" height="68.0198" fill="#F3F3F3" stroke="black" stroke-width="2.42928"/>
<rect x="340.972" y="342.077" width="68.0198" height="68.0198" fill="#F3F3F3" stroke="black" stroke-width="2.42928"/>
<rect x="340.972" y="410.129" width="68.0198" height="68.0198" fill="#F3F3F3" stroke="black" stroke-width="2.42928"/>
<rect x="340.972" y="478.082" width="68.0198" height="68.0198" fill="#F3F3F3" stroke="black" stroke-width="2.42928"/>
<rect x="273.12" y="70.0066" width="68.0198" height="68.0198" fill="#F3F3F3" stroke="black" stroke-width="2.42928"/>
<rect x="273.12" y="138.021" width="68.0198" height="68.0198" fill="#F3F3F3" stroke="black" stroke-width="2.42928"/>
<rect x="273.12" y="206.072" width="68.0198" height="68.0198" fill="#F3F3F3" stroke="black" stroke-width="2.42928"/>
<rect x="273.12" y="274.064" width="68.0198" height="68.0198" fill="#F3F3F3" stroke="black" stroke-width="2.42928"/>
<rect x="273.12" y="342.077" width="68.0198" height="68.0198" fill="#F3F3F3" stroke="black" stroke-width="2.42928"/>
<rect x="273.12" y="410.129" width="68.0198" height="68.0198" fill="#F3F3F3" stroke="black" stroke-width="2.42928"/>
<rect x="273.12" y="478.082" width="68.0198" height="68.0198" fill="#F3F3F3" stroke="black" stroke-width="2.42928"/>
<rect x="205.093" y="70.0066" width="68.0198" height="68.0198" fill="#F3F3F3" stroke="black" stroke-width="2.42928"/>
<rect x="205.093" y="138.021" width="68.0198" height="68.0198" stroke="black" stroke-width="2.42928"/>
<rect x="205.093" y="206.072" width="68.0198" height="68.0198" stroke="black" stroke-width="2.42928"/>
<rect x="205.093" y="274.064" width="68.0198" height="68.0198" stroke="black" stroke-width="2.42928"/>
<rect x="205.093" y="342.077" width="68.0198" height="68.0198" stroke="black" stroke-width="2.42928"/>
<rect x="205.093" y="410.129" width="68.0198" height="68.0198" stroke="black" stroke-width="2.42928"/>
<rect x="205.093" y="478.082" width="68.0198" height="68.0198" fill="#F3F3F3" stroke="black" stroke-width="2.42928"/>
<rect x="205.093" y="70.0066" width="68.0198" height="68.0198" fill="#F3F3F3" stroke="black" stroke-width="2.42928"/>
<rect x="205.093" y="138.021" width="68.0198" height="68.0198" fill="#F3F3F3" stroke="black" stroke-width="2.42928"/>
<rect x="205.093" y="206.072" width="68.0198" height="68.0198" fill="#F3F3F3" stroke="black" stroke-width="2.42928"/>
<rect x="205.093" y="274.064" width="68.0198" height="68.0198" fill="#F3F3F3" stroke="black" stroke-width="2.42928"/>
<rect x="205.093" y="342.077" width="68.0198" height="68.0198" fill="#F3F3F3" stroke="black" stroke-width="2.42928"/>
<rect x="205.093" y="410.129" width="68.0198" height="68.0198" fill="#F3F3F3" stroke="black" stroke-width="2.42928"/>
<rect x="205.093" y="478.082" width="68.0198" height="68.0198" fill="#F3F3F3" stroke="black" stroke-width="2.42928"/>
<rect x="137.241" y="70.0066" width="68.0198" height="68.0198" fill="#F3F3F3" stroke="black" stroke-width="2.42928"/>
<rect x="137.241" y="138.021" width="68.0198" height="68.0198" fill="#F3F3F3" stroke="black" stroke-width="2.42928"/>
<rect x="137.241" y="206.072" width="68.0198" height="68.0198" fill="#F3F3F3" stroke="black" stroke-width="2.42928"/>
<rect x="137.241" y="274.064" width="68.0198" height="68.0198" fill="#F3F3F3" stroke="black" stroke-width="2.42928"/>
<rect x="137.241" y="342.077" width="68.0198" height="68.0198" fill="#F3F3F3" stroke="black" stroke-width="2.42928"/>
<rect x="137.241" y="410.129" width="68.0198" height="68.0198" fill="#F3F3F3" stroke="black" stroke-width="2.42928"/>
<rect x="137.241" y="478.082" width="68.0198" height="68.0198" fill="#F3F3F3" stroke="black" stroke-width="2.42928"/>
<rect x="69.2118" y="70.0066" width="68.0198" height="68.0198" fill="#F3F3F3" stroke="black" stroke-width="2.42928"/>
<rect x="69.2118" y="138.021" width="68.0198" height="68.0198" fill="#F3F3F3" stroke="black" stroke-width="2.42928"/>
<rect x="69.2118" y="206.072" width="68.0198" height="68.0198" fill="#F3F3F3" stroke="black" stroke-width="2.42928"/>
<rect x="69.2118" y="274.064" width="68.0198" height="68.0198" fill="#F3F3F3" stroke="black" stroke-width="2.42928"/>
<rect x="69.2118" y="342.077" width="68.0198" height="68.0198" fill="#F3F3F3" stroke="black" stroke-width="2.42928"/>
<rect x="69.2118" y="410.129" width="68.0198" height="68.0198" fill="#F3F3F3" stroke="black" stroke-width="2.42928"/>
<rect x="69.2118" y="478.082" width="68.0198" height="68.0198" fill="#F3F3F3" stroke="black" stroke-width="2.42928"/>
<rect x="69.2118" y="70.0066" width="68.0198" height="68.0198" fill="#F3F3F3" stroke="black" stroke-width="2.42928"/>
<rect x="69.2118" y="138.021" width="68.0198" height="68.0198" fill="#F3F3F3" stroke="black" stroke-width="2.42928"/>
<rect x="69.2118" y="206.072" width="68.0198" height="68.0198" fill="#F3F3F3" stroke="black" stroke-width="2.42928"/>
<rect x="69.2118" y="274.064" width="68.0198" height="68.0198" fill="#F3F3F3" stroke="black" stroke-width="2.42928"/>
<rect x="69.2118" y="342.077" width="68.0198" height="68.0198" fill="#F3F3F3" stroke="black" stroke-width="2.42928"/>
<rect x="69.2118" y="410.129" width="68.0198" height="68.0198" fill="#F3F3F3" stroke="black" stroke-width="2.42928"/>
<rect x="69.2118" y="478.082" width="68.0198" height="68.0198" fill="#F3F3F3" stroke="black" stroke-width="2.42928"/>
<rect x="1.36222" y="70.0066" width="68.0198" height="68.0198" fill="#F3F3F3" stroke="black" stroke-width="2.42928"/>
<rect x="476.853" y="1.97685" width="68.0198" height="68.0198" fill="#F3F3F3" stroke="black" stroke-width="2.42928"/>
<rect x="476.853" y="1.97685" width="68.0198" height="68.0198" fill="#F3F3F3" stroke="black" stroke-width="2.42928"/>
<rect x="408.998" y="1.97685" width="68.0198" height="68.0198" fill="#F3F3F3" stroke="black" stroke-width="2.42928"/>
<rect x="340.972" y="1.97685" width="68.0198" height="68.0198" fill="#F3F3F3" stroke="black" stroke-width="2.42928"/>
<rect x="340.972" y="1.97685" width="68.0198" height="68.0198" fill="#F3F3F3" stroke="black" stroke-width="2.42928"/>
<rect x="273.12" y="1.97685" width="68.0198" height="68.0198" fill="#F3F3F3" stroke="black" stroke-width="2.42928"/>
<rect x="205.093" y="1.97685" width="68.0198" height="68.0198" fill="#F3F3F3" stroke="black" stroke-width="2.42928"/>
<rect x="205.093" y="1.97685" width="68.0198" height="68.0198" fill="#F3F3F3" stroke="black" stroke-width="2.42928"/>
<rect x="137.241" y="1.97685" width="68.0198" height="68.0198" fill="#F3F3F3" stroke="black" stroke-width="2.42928"/>
<rect x="69.2118" y="1.97685" width="68.0198" height="68.0198" fill="#F3F3F3" stroke="black" stroke-width="2.42928"/>
<rect x="69.2118" y="1.97685" width="68.0198" height="68.0198" fill="#F3F3F3" stroke="black" stroke-width="2.42928"/>
<rect x="1.36222" y="1.97685" width="68.0198" height="68.0198" fill="#F3F3F3" stroke="black" stroke-width="2.42928"/>
<rect x="1.36222" y="138.021" width="68.0198" height="68.0198" fill="#F3F3F3" stroke="black" stroke-width="2.42928"/>
<rect x="1.36222" y="206.072" width="68.0198" height="68.0198" fill="#F3F3F3" stroke="black" stroke-width="2.42928"/>
<rect x="1.36222" y="274.064" width="68.0198" height="68.0198" fill="#F3F3F3" stroke="black" stroke-width="2.42928"/>
<rect x="1.36222" y="342.077" width="68.0198" height="68.0198" fill="#F3F3F3" stroke="black" stroke-width="2.42928"/>
<rect x="1.36222" y="410.129" width="68.0198" height="68.0198" fill="#F3F3F3" stroke="black" stroke-width="2.42928"/>
<rect x="1.36222" y="478.082" width="68.0198" height="68.0198" fill="#F3F3F3" stroke="black" stroke-width="2.42928"/>
<path d="M105.208 46.5054H103.058V34.0643C103.058 33.6377 103.058 33.2452 103.058 32.8868C103.075 32.5284 103.092 32.17 103.109 31.8117C103.126 31.4362 103.143 31.0693 103.16 30.7109C103.007 30.8816 102.836 31.0693 102.649 31.2741C102.461 31.4789 102.213 31.7263 101.906 32.0164L100.217 33.5524L99.0135 32.1956L103.365 28.2278H105.208V46.5054Z" fill="black"/>
<path d="M105.209 455.794H103.058V443.353C103.058 442.927 103.058 442.534 103.058 442.176C103.075 441.817 103.092 441.459 103.109 441.101C103.126 440.725 103.144 440.358 103.161 440C103.007 440.171 102.836 440.358 102.649 440.563C102.461 440.768 102.213 441.015 101.906 441.306L100.217 442.841L99.0136 441.485L103.365 437.517H105.209V455.794Z" fill="black"/>
<path d="M241.177 46.5054H239.027V34.0643C239.027 33.6377 239.027 33.2452 239.027 32.8868C239.044 32.5284 239.061 32.17 239.078 31.8117C239.095 31.4362 239.112 31.0693 239.129 30.7109C238.976 30.8816 238.805 31.0693 238.617 31.2741C238.43 31.4789 238.182 31.7263 237.875 32.0164L236.185 33.5524L234.982 32.1956L239.334 28.2278H241.177V46.5054Z" fill="black"/>
<path d="M37.1812 114.518H35.0309V102.077C35.0309 101.651 35.0309 101.258 35.0309 100.9C35.0479 100.541 35.065 100.183 35.0821 99.8247C35.0991 99.4493 35.1162 99.0823 35.1333 98.724C34.9797 98.8946 34.809 99.0823 34.6213 99.2871C34.4336 99.4919 34.1861 99.7394 33.8789 100.03L32.1894 101.565L30.9863 100.209L35.3381 96.2409H37.1812V114.518Z" fill="black"/>
<path d="M173.15 114.518H171V102.077C171 101.651 171 101.258 171 100.9C171.017 100.541 171.034 100.183 171.051 99.8247C171.068 99.4493 171.085 99.0823 171.102 98.724C170.948 98.8946 170.778 99.0823 170.59 99.2871C170.402 99.4919 170.155 99.7394 169.848 100.03L168.158 101.565L166.955 100.209L171.307 96.2409H173.15V114.518Z" fill="black"/>
<path d="M105.209 182.569H103.058V170.128C103.058 169.702 103.058 169.309 103.058 168.951C103.075 168.592 103.092 168.234 103.109 167.876C103.126 167.5 103.144 167.133 103.161 166.775C103.007 166.946 102.836 167.133 102.649 167.338C102.461 167.543 102.213 167.79 101.906 168.08L100.217 169.616L99.0136 168.26L103.365 164.292H105.209V182.569Z" fill="black"/>
<path d="M105.209 319.735H103.058V307.294C103.058 306.867 103.058 306.474 103.058 306.116C103.075 305.758 103.092 305.399 103.109 305.041C103.126 304.665 103.144 304.299 103.161 303.94C103.007 304.111 102.836 304.299 102.649 304.503C102.461 304.708 102.213 304.956 101.906 305.246L100.217 306.782L99.0136 305.425L103.365 301.457H105.209V319.735Z" fill="black"/>
<path d="M37.3588 250.582H35.2085V238.141C35.2085 237.715 35.2085 237.322 35.2085 236.964C35.2255 236.605 35.2426 236.247 35.2597 235.889C35.2767 235.513 35.2938 235.146 35.3109 234.788C35.1573 234.959 34.9866 235.146 34.7989 235.351C34.6112 235.556 34.3637 235.803 34.0565 236.093L32.367 237.629L31.1639 236.273L35.5157 232.305H37.3588V250.582Z" fill="black"/>
<path d="M37.3588 387.748H35.2085V375.307C35.2085 374.88 35.2085 374.487 35.2085 374.129C35.2255 373.771 35.2426 373.412 35.2597 373.054C35.2767 372.679 35.2938 372.312 35.3109 371.953C35.1573 372.124 34.9866 372.312 34.7989 372.516C34.6112 372.721 34.3637 372.969 34.0565 373.259L32.367 374.795L31.1639 373.438L35.5157 369.47H37.3588V387.748Z" fill="black"/>
<path d="M173.238 250.582H171.087V238.141C171.087 237.715 171.087 237.322 171.087 236.964C171.104 236.605 171.122 236.247 171.139 235.889C171.156 235.513 171.173 235.146 171.19 234.788C171.036 234.959 170.866 235.146 170.678 235.351C170.49 235.556 170.243 235.803 169.935 236.093L168.246 237.629L167.043 236.273L171.395 232.305H173.238V250.582Z" fill="black"/>
<path d="M173.238 387.748H171.087V375.307C171.087 374.88 171.087 374.487 171.087 374.129C171.104 373.771 171.122 373.412 171.139 373.054C171.156 372.679 171.173 372.312 171.19 371.953C171.036 372.124 170.866 372.312 170.678 372.516C170.49 372.721 170.243 372.969 169.935 373.259L168.246 374.795L167.043 373.438L171.395 369.47H173.238V387.748Z" fill="black"/>
<path d="M309.073 114.518H306.922V102.077C306.922 101.651 306.922 101.258 306.922 100.9C306.94 100.541 306.957 100.183 306.974 99.8247C306.991 99.4493 307.008 99.0823 307.025 98.724C306.871 98.8946 306.701 99.0823 306.513 99.2871C306.325 99.4919 306.078 99.7394 305.771 100.03L304.081 101.565L302.878 100.209L307.23 96.2409H309.073V114.518Z" fill="black"/>
<path d="M309.073 523.807H306.922V511.366C306.922 510.94 306.922 510.547 306.922 510.189C306.94 509.83 306.957 509.472 306.974 509.114C306.991 508.738 307.008 508.371 307.025 508.013C306.871 508.184 306.701 508.371 306.513 508.576C306.325 508.781 306.078 509.028 305.771 509.318L304.081 510.854L302.878 509.498L307.23 505.53H309.073V523.807Z" fill="black"/>
<path d="M309.073 250.582H306.922V238.141C306.922 237.715 306.922 237.322 306.922 236.964C306.94 236.605 306.957 236.247 306.974 235.889C306.991 235.513 307.008 235.146 307.025 234.788C306.871 234.959 306.701 235.146 306.513 235.351C306.325 235.556 306.078 235.803 305.771 236.093L304.081 237.629L302.878 236.273L307.23 232.305H309.073V250.582Z" fill="black"/>
<path d="M309.073 387.748H306.922V375.307C306.922 374.88 306.922 374.487 306.922 374.129C306.94 373.771 306.957 373.412 306.974 373.054C306.991 372.679 307.008 372.312 307.025 371.953C306.871 372.124 306.701 372.312 306.513 372.516C306.325 372.721 306.078 372.969 305.771 373.259L304.081 374.795L302.878 373.438L307.23 369.47H309.073V387.748Z" fill="black"/>
<path d="M241.177 182.569H239.027V170.128C239.027 169.702 239.027 169.309 239.027 168.951C239.044 168.592 239.061 168.234 239.078 167.876C239.095 167.5 239.112 167.133 239.129 166.775C238.976 166.946 238.805 167.133 238.617 167.338C238.43 167.543 238.182 167.79 237.875 168.08L236.185 169.616L234.982 168.26L239.334 164.292H241.177V182.569Z" fill="black"/>
<path d="M241.177 319.735H239.027V307.294C239.027 306.867 239.027 306.474 239.027 306.116C239.044 305.758 239.061 305.399 239.078 305.041C239.095 304.665 239.112 304.299 239.129 303.94C238.976 304.111 238.805 304.299 238.617 304.503C238.43 304.708 238.182 304.956 237.875 305.246L236.185 306.782L234.982 305.425L239.334 301.457H241.177V319.735Z" fill="black"/>
<path d="M241.177 455.794H239.027V443.353C239.027 442.927 239.027 442.534 239.027 442.176C239.044 441.817 239.061 441.459 239.078 441.101C239.095 440.725 239.112 440.358 239.129 440C238.976 440.171 238.805 440.358 238.617 440.563C238.43 440.768 238.182 441.015 237.875 441.306L236.185 442.841L234.982 441.485L239.334 437.517H241.177V455.794Z" fill="black"/>
<path d="M377.056 46.5054H374.906V34.0643C374.906 33.6377 374.906 33.2452 374.906 32.8868C374.923 32.5284 374.94 32.17 374.957 31.8117C374.974 31.4362 374.991 31.0693 375.008 30.7109C374.855 30.8816 374.684 31.0693 374.496 31.2741C374.309 31.4789 374.061 31.7263 373.754 32.0164L372.064 33.5524L370.861 32.1956L375.213 28.2278H377.056V46.5054Z" fill="black"/>
<path d="M377.056 455.794H374.906V443.353C374.906 442.927 374.906 442.534 374.906 442.176C374.923 441.817 374.94 441.459 374.957 441.101C374.974 440.725 374.991 440.358 375.008 440C374.855 440.171 374.684 440.358 374.496 440.563C374.309 440.768 374.061 441.015 373.754 441.306L372.064 442.841L370.861 441.485L375.213 437.517H377.056V455.794Z" fill="black"/>
<path d="M377.056 182.569H374.906V170.128C374.906 169.702 374.906 169.309 374.906 168.951C374.923 168.592 374.94 168.234 374.957 167.876C374.974 167.5 374.991 167.133 375.008 166.775C374.855 166.946 374.684 167.133 374.496 167.338C374.309 167.543 374.061 167.79 373.754 168.08L372.064 169.616L370.861 168.26L375.213 164.292H377.056V182.569Z" fill="black"/>
<path d="M377.056 319.735H374.906V307.294C374.906 306.867 374.906 306.474 374.906 306.116C374.923 305.758 374.94 305.399 374.957 305.041C374.974 304.665 374.991 304.299 375.008 303.94C374.855 304.111 374.684 304.299 374.496 304.503C374.309 304.708 374.061 304.956 373.754 305.246L372.064 306.782L370.861 305.425L375.213 301.457H377.056V319.735Z" fill="black"/>
<path d="M512.849 46.5054H510.699V34.0643C510.699 33.6377 510.699 33.2452 510.699 32.8868C510.716 32.5284 510.733 32.17 510.75 31.8117C510.767 31.4362 510.784 31.0693 510.801 30.7109C510.648 30.8816 510.477 31.0693 510.289 31.2741C510.101 31.4789 509.854 31.7263 509.547 32.0164L507.857 33.5524L506.654 32.1956L511.006 28.2278H512.849V46.5054Z" fill="black"/>
<path d="M444.952 114.518H442.801V102.077C442.801 101.651 442.801 101.258 442.801 100.9C442.818 100.541 442.836 100.183 442.853 99.8247C442.87 99.4493 442.887 99.0823 442.904 98.724C442.75 98.8946 442.58 99.0823 442.392 99.2871C442.204 99.4919 441.957 99.7394 441.649 100.03L439.96 101.565L438.757 100.209L443.109 96.2409H444.952V114.518Z" fill="black"/>
<path d="M512.849 455.794H510.699V443.353C510.699 442.927 510.699 442.534 510.699 442.176C510.716 441.817 510.733 441.459 510.75 441.101C510.767 440.725 510.784 440.358 510.801 440C510.648 440.171 510.477 440.358 510.289 440.563C510.101 440.768 509.854 441.015 509.547 441.306L507.857 442.841L506.654 441.485L511.006 437.517H512.849V455.794Z" fill="black"/>
<path d="M512.849 182.569H510.699V170.128C510.699 169.702 510.699 169.309 510.699 168.951C510.716 168.592 510.733 168.234 510.75 167.876C510.767 167.5 510.784 167.133 510.801 166.775C510.648 166.946 510.477 167.133 510.289 167.338C510.101 167.543 509.854 167.79 509.547 168.08L507.857 169.616L506.654 168.26L511.006 164.292H512.849V182.569Z" fill="black"/>
<path d="M512.849 319.735H510.699V307.294C510.699 306.867 510.699 306.474 510.699 306.116C510.716 305.758 510.733 305.399 510.75 305.041C510.767 304.665 510.784 304.299 510.801 303.94C510.648 304.111 510.477 304.299 510.289 304.503C510.101 304.708 509.854 304.956 509.547 305.246L507.857 306.782L506.654 305.425L511.006 301.457H512.849V319.735Z" fill="black"/>
<path d="M444.952 523.807H442.801V511.366C442.801 510.94 442.801 510.547 442.801 510.189C442.818 509.83 442.836 509.472 442.853 509.114C442.87 508.738 442.887 508.371 442.904 508.013C442.75 508.184 442.58 508.371 442.392 508.576C442.204 508.781 441.957 509.028 441.649 509.318L439.96 510.854L438.757 509.498L443.109 505.53H444.952V523.807Z" fill="black"/>
<path d="M37.1812 523.807H35.0309V511.366C35.0309 510.94 35.0309 510.547 35.0309 510.189C35.0479 509.83 35.065 509.472 35.0821 509.114C35.0991 508.738 35.1162 508.371 35.1333 508.013C34.9797 508.184 34.809 508.371 34.6213 508.576C34.4336 508.781 34.1861 509.028 33.8789 509.318L32.1894 510.854L30.9863 509.498L35.3381 505.53H37.1812V523.807Z" fill="black"/>
<path d="M173.061 523.807H170.911V511.366C170.911 510.94 170.911 510.547 170.911 510.189C170.928 509.83 170.945 509.472 170.962 509.114C170.979 508.738 170.996 508.371 171.013 508.013C170.86 508.184 170.689 508.371 170.501 508.576C170.313 508.781 170.066 509.028 169.759 509.318L168.069 510.854L166.866 509.498L171.218 505.53H173.061V523.807Z" fill="black"/>
<path d="M444.952 250.582H442.801V238.141C442.801 237.715 442.801 237.322 442.801 236.964C442.818 236.605 442.836 236.247 442.853 235.889C442.87 235.513 442.887 235.146 442.904 234.788C442.75 234.959 442.58 235.146 442.392 235.351C442.204 235.556 441.957 235.803 441.649 236.093L439.96 237.629L438.757 236.273L443.109 232.305H444.952V250.582Z" fill="black"/>
<path d="M444.952 387.748H442.801V375.307C442.801 374.88 442.801 374.487 442.801 374.129C442.818 373.771 442.836 373.412 442.853 373.054C442.87 372.679 442.887 372.312 442.904 371.953C442.75 372.124 442.58 372.312 442.392 372.516C442.204 372.721 441.957 372.969 441.649 373.259L439.96 374.795L438.757 373.438L443.109 369.47H444.952V387.748Z" fill="black"/>
<path d="M40.0226 46.5054H30.1671V44.8414L34.1093 39.6705C34.9114 38.6636 35.5428 37.7932 36.0036 37.0594C36.4815 36.3085 36.8228 35.6003 37.0276 34.9347C37.2494 34.2691 37.3604 33.5353 37.3604 32.7332C37.3604 31.8628 37.13 31.1717 36.6692 30.6597C36.2084 30.1477 35.5599 29.8917 34.7237 29.8917C34.0752 29.8917 33.4949 30.0112 32.983 30.2501C32.4881 30.472 31.9761 30.8218 31.447 31.2997L30.2951 29.8149C30.7559 29.4054 31.2166 29.064 31.6774 28.791C32.1382 28.5179 32.6246 28.3131 33.1366 28.1766C33.6656 28.0401 34.2288 27.9718 34.8261 27.9718C35.8159 27.9718 36.6607 28.1681 37.3604 28.5606C38.0601 28.936 38.5976 29.4822 38.9731 30.1989C39.3656 30.8986 39.5619 31.7093 39.5619 32.6308C39.5619 33.3646 39.4851 34.0473 39.3315 34.6787C39.1779 35.3102 38.9475 35.9245 38.6403 36.5218C38.3502 37.1191 37.9833 37.7335 37.5396 38.3649C37.0958 38.9964 36.5839 39.662 36.0036 40.3617L32.7526 44.4319V44.5343H40.0226V46.5054Z" fill="black"/>
<path d="M40.0226 182.569H30.1671V180.905L34.1093 175.734C34.9114 174.728 35.5428 173.857 36.0036 173.123C36.4815 172.372 36.8228 171.664 37.0276 170.999C37.2494 170.333 37.3604 169.599 37.3604 168.797C37.3604 167.927 37.13 167.236 36.6692 166.724C36.2084 166.212 35.5599 165.956 34.7237 165.956C34.0752 165.956 33.4949 166.075 32.983 166.314C32.4881 166.536 31.9761 166.886 31.447 167.364L30.2951 165.879C30.7559 165.469 31.2166 165.128 31.6774 164.855C32.1382 164.582 32.6246 164.377 33.1366 164.241C33.6656 164.104 34.2288 164.036 34.8261 164.036C35.8159 164.036 36.6607 164.232 37.3604 164.625C38.0601 165 38.5976 165.546 38.9731 166.263C39.3656 166.963 39.5619 167.773 39.5619 168.695C39.5619 169.429 39.4851 170.111 39.3315 170.743C39.1779 171.374 38.9475 171.988 38.6403 172.586C38.3502 173.183 37.9833 173.797 37.5396 174.429C37.0958 175.06 36.5839 175.726 36.0036 176.426L32.7526 180.496V180.598H40.0226V182.569Z" fill="black"/>
<path d="M40.0226 319.735H30.1671V318.071L34.1093 312.9C34.9114 311.893 35.5428 311.022 36.0036 310.289C36.4815 309.538 36.8228 308.83 37.0276 308.164C37.2494 307.498 37.3604 306.765 37.3604 305.962C37.3604 305.092 37.13 304.401 36.6692 303.889C36.2084 303.377 35.5599 303.121 34.7237 303.121C34.0752 303.121 33.4949 303.24 32.983 303.479C32.4881 303.701 31.9761 304.051 31.447 304.529L30.2951 303.044C30.7559 302.635 31.2166 302.293 31.6774 302.02C32.1382 301.747 32.6246 301.542 33.1366 301.406C33.6656 301.269 34.2288 301.201 34.8261 301.201C35.8159 301.201 36.6607 301.397 37.3604 301.79C38.0601 302.165 38.5976 302.711 38.9731 303.428C39.3656 304.128 39.5619 304.939 39.5619 305.86C39.5619 306.594 39.4851 307.277 39.3315 307.908C39.1779 308.539 38.9475 309.154 38.6403 309.751C38.3502 310.348 37.9833 310.963 37.5396 311.594C37.0958 312.226 36.5839 312.891 36.0036 313.591L32.7526 317.661V317.764H40.0226V319.735Z" fill="black"/>
<path d="M40.0226 455.794H30.1671V454.131L34.1093 448.96C34.9114 447.953 35.5428 447.082 36.0036 446.348C36.4815 445.598 36.8228 444.889 37.0276 444.224C37.2494 443.558 37.3604 442.824 37.3604 442.022C37.3604 441.152 37.13 440.461 36.6692 439.949C36.2084 439.437 35.5599 439.181 34.7237 439.181C34.0752 439.181 33.4949 439.3 32.983 439.539C32.4881 439.761 31.9761 440.111 31.447 440.589L30.2951 439.104C30.7559 438.694 31.2166 438.353 31.6774 438.08C32.1382 437.807 32.6246 437.602 33.1366 437.466C33.6656 437.329 34.2288 437.261 34.8261 437.261C35.8159 437.261 36.6607 437.457 37.3604 437.85C38.0601 438.225 38.5976 438.771 38.9731 439.488C39.3656 440.188 39.5619 440.998 39.5619 441.92C39.5619 442.654 39.4851 443.336 39.3315 443.968C39.1779 444.599 38.9475 445.214 38.6403 445.811C38.3502 446.408 37.9833 447.023 37.5396 447.654C37.0958 448.285 36.5839 448.951 36.0036 449.651L32.7526 453.721V453.823H40.0226V455.794Z" fill="black"/>
<path d="M175.903 46.5054H166.047V44.8414L169.989 39.6705C170.791 38.6636 171.423 37.7932 171.884 37.0594C172.361 36.3085 172.703 35.6003 172.907 34.9347C173.129 34.2691 173.24 33.5353 173.24 32.7332C173.24 31.8628 173.01 31.1717 172.549 30.6597C172.088 30.1477 171.44 29.8917 170.604 29.8917C169.955 29.8917 169.375 30.0112 168.863 30.2501C168.368 30.472 167.856 30.8218 167.327 31.2997L166.175 29.8149C166.636 29.4054 167.097 29.064 167.557 28.791C168.018 28.5179 168.504 28.3131 169.016 28.1766C169.545 28.0401 170.109 27.9718 170.706 27.9718C171.696 27.9718 172.541 28.1681 173.24 28.5606C173.94 28.936 174.478 29.4822 174.853 30.1989C175.245 30.8986 175.442 31.7093 175.442 32.6308C175.442 33.3646 175.365 34.0473 175.211 34.6787C175.058 35.3102 174.827 35.9245 174.52 36.5218C174.23 37.1191 173.863 37.7335 173.419 38.3649C172.976 38.9964 172.464 39.662 171.884 40.3617L168.632 44.4319V44.5343H175.903V46.5054Z" fill="black"/>
<path d="M175.903 182.569H166.047V180.905L169.989 175.734C170.791 174.728 171.423 173.857 171.884 173.123C172.361 172.372 172.703 171.664 172.907 170.999C173.129 170.333 173.24 169.599 173.24 168.797C173.24 167.927 173.01 167.236 172.549 166.724C172.088 166.212 171.44 165.956 170.604 165.956C169.955 165.956 169.375 166.075 168.863 166.314C168.368 166.536 167.856 166.886 167.327 167.364L166.175 165.879C166.636 165.469 167.097 165.128 167.557 164.855C168.018 164.582 168.504 164.377 169.016 164.241C169.545 164.104 170.109 164.036 170.706 164.036C171.696 164.036 172.541 164.232 173.24 164.625C173.94 165 174.478 165.546 174.853 166.263C175.245 166.963 175.442 167.773 175.442 168.695C175.442 169.429 175.365 170.111 175.211 170.743C175.058 171.374 174.827 171.988 174.52 172.586C174.23 173.183 173.863 173.797 173.419 174.429C172.976 175.06 172.464 175.726 171.884 176.426L168.632 180.496V180.598H175.903V182.569Z" fill="black"/>
<path d="M175.903 319.735H166.047V318.071L169.989 312.9C170.791 311.893 171.423 311.022 171.884 310.289C172.361 309.538 172.703 308.83 172.907 308.164C173.129 307.498 173.24 306.765 173.24 305.962C173.24 305.092 173.01 304.401 172.549 303.889C172.088 303.377 171.44 303.121 170.604 303.121C169.955 303.121 169.375 303.24 168.863 303.479C168.368 303.701 167.856 304.051 167.327 304.529L166.175 303.044C166.636 302.635 167.097 302.293 167.557 302.02C168.018 301.747 168.504 301.542 169.016 301.406C169.545 301.269 170.109 301.201 170.706 301.201C171.696 301.201 172.541 301.397 173.24 301.79C173.94 302.165 174.478 302.711 174.853 303.428C175.245 304.128 175.442 304.939 175.442 305.86C175.442 306.594 175.365 307.277 175.211 307.908C175.058 308.539 174.827 309.154 174.52 309.751C174.23 310.348 173.863 310.963 173.419 311.594C172.976 312.226 172.464 312.891 171.884 313.591L168.632 317.661V317.764H175.903V319.735Z" fill="black"/>
<path d="M175.903 455.794H166.047V454.131L169.989 448.96C170.791 447.953 171.423 447.082 171.884 446.348C172.361 445.598 172.703 444.889 172.907 444.224C173.129 443.558 173.24 442.824 173.24 442.022C173.24 441.152 173.01 440.461 172.549 439.949C172.088 439.437 171.44 439.181 170.604 439.181C169.955 439.181 169.375 439.3 168.863 439.539C168.368 439.761 167.856 440.111 167.327 440.589L166.175 439.104C166.636 438.694 167.097 438.353 167.557 438.08C168.018 437.807 168.504 437.602 169.016 437.466C169.545 437.329 170.109 437.261 170.706 437.261C171.696 437.261 172.541 437.457 173.24 437.85C173.94 438.225 174.478 438.771 174.853 439.488C175.245 440.188 175.442 440.998 175.442 441.92C175.442 442.654 175.365 443.336 175.211 443.968C175.058 444.599 174.827 445.214 174.52 445.811C174.23 446.408 173.863 447.023 173.419 447.654C172.976 448.285 172.464 448.951 171.884 449.651L168.632 453.721V453.823H175.903V455.794Z" fill="black"/>
<path d="M311.914 46.5054H302.059V44.8414L306.001 39.6705C306.803 38.6636 307.434 37.7932 307.895 37.0594C308.373 36.3085 308.714 35.6003 308.919 34.9347C309.141 34.2691 309.252 33.5353 309.252 32.7332C309.252 31.8628 309.022 31.1717 308.561 30.6597C308.1 30.1477 307.452 29.8917 306.615 29.8917C305.967 29.8917 305.387 30.0112 304.875 30.2501C304.38 30.472 303.868 30.8218 303.339 31.2997L302.187 29.8149C302.647 29.4054 303.108 29.064 303.569 28.791C304.03 28.5179 304.516 28.3131 305.028 28.1766C305.557 28.0401 306.12 27.9718 306.718 27.9718C307.707 27.9718 308.552 28.1681 309.252 28.5606C309.952 28.936 310.489 29.4822 310.865 30.1989C311.257 30.8986 311.453 31.7093 311.453 32.6308C311.453 33.3646 311.377 34.0473 311.223 34.6787C311.069 35.3102 310.839 35.9245 310.532 36.5218C310.242 37.1191 309.875 37.7335 309.431 38.3649C308.987 38.9964 308.475 39.662 307.895 40.3617L304.644 44.4319V44.5343H311.914V46.5054Z" fill="black"/>
<path d="M311.914 182.569H302.059V180.905L306.001 175.734C306.803 174.728 307.434 173.857 307.895 173.123C308.373 172.372 308.714 171.664 308.919 170.999C309.141 170.333 309.252 169.599 309.252 168.797C309.252 167.927 309.022 167.236 308.561 166.724C308.1 166.212 307.452 165.956 306.615 165.956C305.967 165.956 305.387 166.075 304.875 166.314C304.38 166.536 303.868 166.886 303.339 167.364L302.187 165.879C302.647 165.469 303.108 165.128 303.569 164.855C304.03 164.582 304.516 164.377 305.028 164.241C305.557 164.104 306.12 164.036 306.718 164.036C307.707 164.036 308.552 164.232 309.252 164.625C309.952 165 310.489 165.546 310.865 166.263C311.257 166.963 311.453 167.773 311.453 168.695C311.453 169.429 311.377 170.111 311.223 170.743C311.069 171.374 310.839 171.988 310.532 172.586C310.242 173.183 309.875 173.797 309.431 174.429C308.987 175.06 308.475 175.726 307.895 176.426L304.644 180.496V180.598H311.914V182.569Z" fill="black"/>
<path d="M311.914 319.735H302.059V318.071L306.001 312.9C306.803 311.893 307.434 311.022 307.895 310.289C308.373 309.538 308.714 308.83 308.919 308.164C309.141 307.498 309.252 306.765 309.252 305.962C309.252 305.092 309.022 304.401 308.561 303.889C308.1 303.377 307.452 303.121 306.615 303.121C305.967 303.121 305.387 303.24 304.875 303.479C304.38 303.701 303.868 304.051 303.339 304.529L302.187 303.044C302.647 302.635 303.108 302.293 303.569 302.02C304.03 301.747 304.516 301.542 305.028 301.406C305.557 301.269 306.12 301.201 306.718 301.201C307.707 301.201 308.552 301.397 309.252 301.79C309.952 302.165 310.489 302.711 310.865 303.428C311.257 304.128 311.453 304.939 311.453 305.86C311.453 306.594 311.377 307.277 311.223 307.908C311.069 308.539 310.839 309.154 310.532 309.751C310.242 310.348 309.875 310.963 309.431 311.594C308.987 312.226 308.475 312.891 307.895 313.591L304.644 317.661V317.764H311.914V319.735Z" fill="black"/>
<path d="M311.914 455.794H302.059V454.131L306.001 448.96C306.803 447.953 307.434 447.082 307.895 446.348C308.373 445.598 308.714 444.889 308.919 444.224C309.141 443.558 309.252 442.824 309.252 442.022C309.252 441.152 309.022 440.461 308.561 439.949C308.1 439.437 307.452 439.181 306.615 439.181C305.967 439.181 305.387 439.3 304.875 439.539C304.38 439.761 303.868 440.111 303.339 440.589L302.187 439.104C302.647 438.694 303.108 438.353 303.569 438.08C304.03 437.807 304.516 437.602 305.028 437.466C305.557 437.329 306.12 437.261 306.718 437.261C307.707 437.261 308.552 437.457 309.252 437.85C309.952 438.225 310.489 438.771 310.865 439.488C311.257 440.188 311.453 440.998 311.453 441.92C311.453 442.654 311.377 443.336 311.223 443.968C311.069 444.599 310.839 445.214 310.532 445.811C310.242 446.408 309.875 447.023 309.431 447.654C308.987 448.285 308.475 448.951 307.895 449.651L304.644 453.721V453.823H311.914V455.794Z" fill="black"/>
<path d="M447.793 46.5054H437.938V44.8414L441.88 39.6705C442.682 38.6636 443.313 37.7932 443.774 37.0594C444.252 36.3085 444.593 35.6003 444.798 34.9347C445.02 34.2691 445.131 33.5353 445.131 32.7332C445.131 31.8628 444.9 31.1717 444.44 30.6597C443.979 30.1477 443.33 29.8917 442.494 29.8917C441.846 29.8917 441.265 30.0112 440.753 30.2501C440.259 30.472 439.747 30.8218 439.218 31.2997L438.066 29.8149C438.526 29.4054 438.987 29.064 439.448 28.791C439.909 28.5179 440.395 28.3131 440.907 28.1766C441.436 28.0401 441.999 27.9718 442.597 27.9718C443.586 27.9718 444.431 28.1681 445.131 28.5606C445.831 28.936 446.368 29.4822 446.744 30.1989C447.136 30.8986 447.332 31.7093 447.332 32.6308C447.332 33.3646 447.256 34.0473 447.102 34.6787C446.948 35.3102 446.718 35.9245 446.411 36.5218C446.121 37.1191 445.754 37.7335 445.31 38.3649C444.866 38.9964 444.354 39.662 443.774 40.3617L440.523 44.4319V44.5343H447.793V46.5054Z" fill="black"/>
<path d="M447.793 182.569H437.938V180.905L441.88 175.734C442.682 174.728 443.313 173.857 443.774 173.123C444.252 172.372 444.593 171.664 444.798 170.999C445.02 170.333 445.131 169.599 445.131 168.797C445.131 167.927 444.9 167.236 444.44 166.724C443.979 166.212 443.33 165.956 442.494 165.956C441.846 165.956 441.265 166.075 440.753 166.314C440.259 166.536 439.747 166.886 439.218 167.364L438.066 165.879C438.526 165.469 438.987 165.128 439.448 164.855C439.909 164.582 440.395 164.377 440.907 164.241C441.436 164.104 441.999 164.036 442.597 164.036C443.586 164.036 444.431 164.232 445.131 164.625C445.831 165 446.368 165.546 446.744 166.263C447.136 166.963 447.332 167.773 447.332 168.695C447.332 169.429 447.256 170.111 447.102 170.743C446.948 171.374 446.718 171.988 446.411 172.586C446.121 173.183 445.754 173.797 445.31 174.429C444.866 175.06 444.354 175.726 443.774 176.426L440.523 180.496V180.598H447.793V182.569Z" fill="black"/>
<path d="M447.793 319.735H437.938V318.071L441.88 312.9C442.682 311.893 443.313 311.022 443.774 310.289C444.252 309.538 444.593 308.83 444.798 308.164C445.02 307.498 445.131 306.765 445.131 305.962C445.131 305.092 444.9 304.401 444.44 303.889C443.979 303.377 443.33 303.121 442.494 303.121C441.846 303.121 441.265 303.24 440.753 303.479C440.259 303.701 439.747 304.051 439.218 304.529L438.066 303.044C438.526 302.635 438.987 302.293 439.448 302.02C439.909 301.747 440.395 301.542 440.907 301.406C441.436 301.269 441.999 301.201 442.597 301.201C443.586 301.201 444.431 301.397 445.131 301.79C445.831 302.165 446.368 302.711 446.744 303.428C447.136 304.128 447.332 304.939 447.332 305.86C447.332 306.594 447.256 307.277 447.102 307.908C446.948 308.539 446.718 309.154 446.411 309.751C446.121 310.348 445.754 310.963 445.31 311.594C444.866 312.226 444.354 312.891 443.774 313.591L440.523 317.661V317.764H447.793V319.735Z" fill="black"/>
<path d="M447.793 455.794H437.938V454.131L441.88 448.96C442.682 447.953 443.313 447.082 443.774 446.348C444.252 445.598 444.593 444.889 444.798 444.224C445.02 443.558 445.131 442.824 445.131 442.022C445.131 441.152 444.9 440.461 444.44 439.949C443.979 439.437 443.33 439.181 442.494 439.181C441.846 439.181 441.265 439.3 440.753 439.539C440.259 439.761 439.747 440.111 439.218 440.589L438.066 439.104C438.526 438.694 438.987 438.353 439.448 438.08C439.909 437.807 440.395 437.602 440.907 437.466C441.436 437.329 441.999 437.261 442.597 437.261C443.586 437.261 444.431 437.457 445.131 437.85C445.831 438.225 446.368 438.771 446.744 439.488C447.136 440.188 447.332 440.998 447.332 441.92C447.332 442.654 447.256 443.336 447.102 443.968C446.948 444.599 446.718 445.214 446.411 445.811C446.121 446.408 445.754 447.023 445.31 447.654C444.866 448.285 444.354 448.951 443.774 449.651L440.523 453.721V453.823H447.793V455.794Z" fill="black"/>
<path d="M108.14 114.518H98.2843V112.855L102.226 107.684C103.029 106.677 103.66 105.806 104.121 105.072C104.599 104.322 104.94 103.613 105.145 102.948C105.367 102.282 105.478 101.548 105.478 100.746C105.478 99.8759 105.247 99.1847 104.786 98.6728C104.326 98.1608 103.677 97.9048 102.841 97.9048C102.192 97.9048 101.612 98.0243 101.1 98.2632C100.605 98.485 100.093 98.8349 99.5642 99.3127L98.4123 97.828C98.8731 97.4184 99.3338 97.0771 99.7946 96.8041C100.255 96.531 100.742 96.3262 101.254 96.1897C101.783 96.0532 102.346 95.9849 102.943 95.9849C103.933 95.9849 104.778 96.1811 105.478 96.5737C106.177 96.9491 106.715 97.4952 107.09 98.212C107.483 98.9117 107.679 99.7223 107.679 100.644C107.679 101.378 107.602 102.06 107.449 102.692C107.295 103.323 107.065 103.938 106.757 104.535C106.467 105.132 106.1 105.747 105.657 106.378C105.213 107.009 104.701 107.675 104.121 108.375L100.87 112.445V112.547H108.14V114.518Z" fill="black"/>
<path d="M108.14 250.582H98.2843V248.918L102.226 243.748C103.029 242.741 103.66 241.87 104.121 241.136C104.599 240.386 104.94 239.677 105.145 239.012C105.367 238.346 105.478 237.612 105.478 236.81C105.478 235.94 105.247 235.249 104.786 234.737C104.326 234.225 103.677 233.969 102.841 233.969C102.192 233.969 101.612 234.088 101.1 234.327C100.605 234.549 100.093 234.899 99.5642 235.377L98.4123 233.892C98.8731 233.482 99.3338 233.141 99.7946 232.868C100.255 232.595 100.742 232.39 101.254 232.254C101.783 232.117 102.346 232.049 102.943 232.049C103.933 232.049 104.778 232.245 105.478 232.638C106.177 233.013 106.715 233.559 107.09 234.276C107.483 234.976 107.679 235.786 107.679 236.708C107.679 237.442 107.602 238.124 107.449 238.756C107.295 239.387 107.065 240.002 106.757 240.599C106.467 241.196 106.1 241.811 105.657 242.442C105.213 243.073 104.701 243.739 104.121 244.439L100.87 248.509V248.611H108.14V250.582Z" fill="black"/>
<path d="M108.14 387.748H98.2843V386.084L102.226 380.913C103.029 379.906 103.66 379.036 104.121 378.302C104.599 377.551 104.94 376.843 105.145 376.177C105.367 375.511 105.478 374.778 105.478 373.976C105.478 373.105 105.247 372.414 104.786 371.902C104.326 371.39 103.677 371.134 102.841 371.134C102.192 371.134 101.612 371.254 101.1 371.492C100.605 371.714 100.093 372.064 99.5642 372.542L98.4123 371.057C98.8731 370.648 99.3338 370.306 99.7946 370.033C100.255 369.76 100.742 369.555 101.254 369.419C101.783 369.282 102.346 369.214 102.943 369.214C103.933 369.214 104.778 369.41 105.478 369.803C106.177 370.178 106.715 370.724 107.09 371.441C107.483 372.141 107.679 372.952 107.679 373.873C107.679 374.607 107.602 375.29 107.449 375.921C107.295 376.552 107.065 377.167 106.757 377.764C106.467 378.361 106.1 378.976 105.657 379.607C105.213 380.239 104.701 380.904 104.121 381.604L100.87 385.674V385.777H108.14V387.748Z" fill="black"/>
<path d="M108.14 523.807H98.2843V522.143L102.226 516.972C103.029 515.966 103.66 515.095 104.121 514.361C104.599 513.611 104.94 512.902 105.145 512.237C105.367 511.571 105.478 510.837 105.478 510.035C105.478 509.165 105.247 508.474 104.786 507.962C104.326 507.45 103.677 507.194 102.841 507.194C102.192 507.194 101.612 507.313 101.1 507.552C100.605 507.774 100.093 508.124 99.5642 508.602L98.4123 507.117C98.8731 506.707 99.3338 506.366 99.7946 506.093C100.255 505.82 100.742 505.615 101.254 505.479C101.783 505.342 102.346 505.274 102.943 505.274C103.933 505.274 104.778 505.47 105.478 505.863C106.177 506.238 106.715 506.784 107.09 507.501C107.483 508.201 107.679 509.011 107.679 509.933C107.679 510.667 107.602 511.349 107.449 511.981C107.295 512.612 107.065 513.227 106.757 513.824C106.467 514.421 106.1 515.036 105.657 515.667C105.213 516.298 104.701 516.964 104.121 517.664L100.87 521.734V521.836H108.14V523.807Z" fill="black"/>
<path d="M243.931 114.518H234.075V112.855L238.017 107.684C238.82 106.677 239.451 105.806 239.912 105.072C240.39 104.322 240.731 103.613 240.936 102.948C241.158 102.282 241.269 101.548 241.269 100.746C241.269 99.8759 241.038 99.1847 240.577 98.6728C240.117 98.1608 239.468 97.9048 238.632 97.9048C237.983 97.9048 237.403 98.0243 236.891 98.2632C236.396 98.485 235.884 98.8349 235.355 99.3127L234.203 97.828C234.664 97.4184 235.125 97.0771 235.586 96.8041C236.046 96.531 236.533 96.3262 237.045 96.1897C237.574 96.0532 238.137 95.9849 238.734 95.9849C239.724 95.9849 240.569 96.1811 241.269 96.5737C241.968 96.9491 242.506 97.4952 242.881 98.212C243.274 98.9117 243.47 99.7223 243.47 100.644C243.47 101.378 243.393 102.06 243.24 102.692C243.086 103.323 242.856 103.938 242.548 104.535C242.258 105.132 241.891 105.747 241.448 106.378C241.004 107.009 240.492 107.675 239.912 108.375L236.661 112.445V112.547H243.931V114.518Z" fill="black"/>
<path d="M243.931 250.582H234.075V248.918L238.017 243.748C238.82 242.741 239.451 241.87 239.912 241.136C240.39 240.386 240.731 239.677 240.936 239.012C241.158 238.346 241.269 237.612 241.269 236.81C241.269 235.94 241.038 235.249 240.577 234.737C240.117 234.225 239.468 233.969 238.632 233.969C237.983 233.969 237.403 234.088 236.891 234.327C236.396 234.549 235.884 234.899 235.355 235.377L234.203 233.892C234.664 233.482 235.125 233.141 235.586 232.868C236.046 232.595 236.533 232.39 237.045 232.254C237.574 232.117 238.137 232.049 238.734 232.049C239.724 232.049 240.569 232.245 241.269 232.638C241.968 233.013 242.506 233.559 242.881 234.276C243.274 234.976 243.47 235.786 243.47 236.708C243.47 237.442 243.393 238.124 243.24 238.756C243.086 239.387 242.856 240.002 242.548 240.599C242.258 241.196 241.891 241.811 241.448 242.442C241.004 243.073 240.492 243.739 239.912 244.439L236.661 248.509V248.611H243.931V250.582Z" fill="black"/>
<path d="M243.931 387.748H234.075V386.084L238.017 380.913C238.82 379.906 239.451 379.036 239.912 378.302C240.39 377.551 240.731 376.843 240.936 376.177C241.158 375.511 241.269 374.778 241.269 373.976C241.269 373.105 241.038 372.414 240.577 371.902C240.117 371.39 239.468 371.134 238.632 371.134C237.983 371.134 237.403 371.254 236.891 371.492C236.396 371.714 235.884 372.064 235.355 372.542L234.203 371.057C234.664 370.648 235.125 370.306 235.586 370.033C236.046 369.76 236.533 369.555 237.045 369.419C237.574 369.282 238.137 369.214 238.734 369.214C239.724 369.214 240.569 369.41 241.269 369.803C241.968 370.178 242.506 370.724 242.881 371.441C243.274 372.141 243.47 372.952 243.47 373.873C243.47 374.607 243.393 375.29 243.24 375.921C243.086 376.552 242.856 377.167 242.548 377.764C242.258 378.361 241.891 378.976 241.448 379.607C241.004 380.239 240.492 380.904 239.912 381.604L236.661 385.674V385.777H243.931V387.748Z" fill="black"/>
<path d="M243.931 523.807H234.075V522.143L238.017 516.972C238.82 515.966 239.451 515.095 239.912 514.361C240.39 513.611 240.731 512.902 240.936 512.237C241.158 511.571 241.269 510.837 241.269 510.035C241.269 509.165 241.038 508.474 240.577 507.962C240.117 507.45 239.468 507.194 238.632 507.194C237.983 507.194 237.403 507.313 236.891 507.552C236.396 507.774 235.884 508.124 235.355 508.602L234.203 507.117C234.664 506.707 235.125 506.366 235.586 506.093C236.046 505.82 236.533 505.615 237.045 505.479C237.574 505.342 238.137 505.274 238.734 505.274C239.724 505.274 240.569 505.47 241.269 505.863C241.968 506.238 242.506 506.784 242.881 507.501C243.274 508.201 243.47 509.011 243.47 509.933C243.47 510.667 243.393 511.349 243.24 511.981C243.086 512.612 242.856 513.227 242.548 513.824C242.258 514.421 241.891 515.036 241.448 515.667C241.004 516.298 240.492 516.964 239.912 517.664L236.661 521.734V521.836H243.931V523.807Z" fill="black"/>
<path d="M379.81 114.518H369.954V112.855L373.896 107.684C374.698 106.677 375.33 105.806 375.791 105.072C376.269 104.322 376.61 103.613 376.815 102.948C377.036 102.282 377.147 101.548 377.147 100.746C377.147 99.8759 376.917 99.1847 376.456 98.6728C375.995 98.1608 375.347 97.9048 374.511 97.9048C373.862 97.9048 373.282 98.0243 372.77 98.2632C372.275 98.485 371.763 98.8349 371.234 99.3127L370.082 97.828C370.543 97.4184 371.004 97.0771 371.464 96.8041C371.925 96.531 372.412 96.3262 372.924 96.1897C373.453 96.0532 374.016 95.9849 374.613 95.9849C375.603 95.9849 376.448 96.1811 377.147 96.5737C377.847 96.9491 378.385 97.4952 378.76 98.212C379.153 98.9117 379.349 99.7223 379.349 100.644C379.349 101.378 379.272 102.06 379.119 102.692C378.965 103.323 378.735 103.938 378.427 104.535C378.137 105.132 377.77 105.747 377.327 106.378C376.883 107.009 376.371 107.675 375.791 108.375L372.54 112.445V112.547H379.81V114.518Z" fill="black"/>
<path d="M379.81 250.582H369.954V248.918L373.896 243.748C374.698 242.741 375.33 241.87 375.791 241.136C376.269 240.386 376.61 239.677 376.815 239.012C377.036 238.346 377.147 237.612 377.147 236.81C377.147 235.94 376.917 235.249 376.456 234.737C375.995 234.225 375.347 233.969 374.511 233.969C373.862 233.969 373.282 234.088 372.77 234.327C372.275 234.549 371.763 234.899 371.234 235.377L370.082 233.892C370.543 233.482 371.004 233.141 371.464 232.868C371.925 232.595 372.412 232.39 372.924 232.254C373.453 232.117 374.016 232.049 374.613 232.049C375.603 232.049 376.448 232.245 377.147 232.638C377.847 233.013 378.385 233.559 378.76 234.276C379.153 234.976 379.349 235.786 379.349 236.708C379.349 237.442 379.272 238.124 379.119 238.756C378.965 239.387 378.735 240.002 378.427 240.599C378.137 241.196 377.77 241.811 377.327 242.442C376.883 243.073 376.371 243.739 375.791 244.439L372.54 248.509V248.611H379.81V250.582Z" fill="black"/>
<path d="M379.81 387.748H369.954V386.084L373.896 380.913C374.698 379.906 375.33 379.036 375.791 378.302C376.269 377.551 376.61 376.843 376.815 376.177C377.036 375.511 377.147 374.778 377.147 373.976C377.147 373.105 376.917 372.414 376.456 371.902C375.995 371.39 375.347 371.134 374.511 371.134C373.862 371.134 373.282 371.254 372.77 371.492C372.275 371.714 371.763 372.064 371.234 372.542L370.082 371.057C370.543 370.648 371.004 370.306 371.464 370.033C371.925 369.76 372.412 369.555 372.924 369.419C373.453 369.282 374.016 369.214 374.613 369.214C375.603 369.214 376.448 369.41 377.147 369.803C377.847 370.178 378.385 370.724 378.76 371.441C379.153 372.141 379.349 372.952 379.349 373.873C379.349 374.607 379.272 375.29 379.119 375.921C378.965 376.552 378.735 377.167 378.427 377.764C378.137 378.361 377.77 378.976 377.327 379.607C376.883 380.239 376.371 380.904 375.791 381.604L372.54 385.674V385.777H379.81V387.748Z" fill="black"/>
<path d="M379.81 523.807H369.954V522.143L373.896 516.972C374.698 515.966 375.33 515.095 375.791 514.361C376.269 513.611 376.61 512.902 376.815 512.237C377.036 511.571 377.147 510.837 377.147 510.035C377.147 509.165 376.917 508.474 376.456 507.962C375.995 507.45 375.347 507.194 374.511 507.194C373.862 507.194 373.282 507.313 372.77 507.552C372.275 507.774 371.763 508.124 371.234 508.602L370.082 507.117C370.543 506.707 371.004 506.366 371.464 506.093C371.925 505.82 372.412 505.615 372.924 505.479C373.453 505.342 374.016 505.274 374.613 505.274C375.603 505.274 376.448 505.47 377.147 505.863C377.847 506.238 378.385 506.784 378.76 507.501C379.153 508.201 379.349 509.011 379.349 509.933C379.349 510.667 379.272 511.349 379.119 511.981C378.965 512.612 378.735 513.227 378.427 513.824C378.137 514.421 377.77 515.036 377.327 515.667C376.883 516.298 376.371 516.964 375.791 517.664L372.54 521.734V521.836H379.81V523.807Z" fill="black"/>
<path d="M515.691 114.518H505.835V112.855L509.777 107.684C510.579 106.677 511.211 105.806 511.672 105.072C512.149 104.322 512.491 103.613 512.695 102.948C512.917 102.282 513.028 101.548 513.028 100.746C513.028 99.8759 512.798 99.1847 512.337 98.6728C511.876 98.1608 511.228 97.9048 510.392 97.9048C509.743 97.9048 509.163 98.0243 508.651 98.2632C508.156 98.485 507.644 98.8349 507.115 99.3127L505.963 97.828C506.424 97.4184 506.885 97.0771 507.345 96.8041C507.806 96.531 508.292 96.3262 508.804 96.1897C509.334 96.0532 509.897 95.9849 510.494 95.9849C511.484 95.9849 512.329 96.1811 513.028 96.5737C513.728 96.9491 514.266 97.4952 514.641 98.212C515.034 98.9117 515.23 99.7223 515.23 100.644C515.23 101.378 515.153 102.06 514.999 102.692C514.846 103.323 514.615 103.938 514.308 104.535C514.018 105.132 513.651 105.747 513.207 106.378C512.764 107.009 512.252 107.675 511.672 108.375L508.42 112.445V112.547H515.691V114.518Z" fill="black"/>
<path d="M515.691 250.582H505.835V248.918L509.777 243.748C510.579 242.741 511.211 241.87 511.672 241.136C512.149 240.386 512.491 239.677 512.695 239.012C512.917 238.346 513.028 237.612 513.028 236.81C513.028 235.94 512.798 235.249 512.337 234.737C511.876 234.225 511.228 233.969 510.392 233.969C509.743 233.969 509.163 234.088 508.651 234.327C508.156 234.549 507.644 234.899 507.115 235.377L505.963 233.892C506.424 233.482 506.885 233.141 507.345 232.868C507.806 232.595 508.292 232.39 508.804 232.254C509.334 232.117 509.897 232.049 510.494 232.049C511.484 232.049 512.329 232.245 513.028 232.638C513.728 233.013 514.266 233.559 514.641 234.276C515.034 234.976 515.23 235.786 515.23 236.708C515.23 237.442 515.153 238.124 514.999 238.756C514.846 239.387 514.615 240.002 514.308 240.599C514.018 241.196 513.651 241.811 513.207 242.442C512.764 243.073 512.252 243.739 511.672 244.439L508.42 248.509V248.611H515.691V250.582Z" fill="black"/>
<path d="M515.691 387.748H505.835V386.084L509.777 380.913C510.579 379.906 511.211 379.036 511.672 378.302C512.149 377.551 512.491 376.843 512.695 376.177C512.917 375.511 513.028 374.778 513.028 373.976C513.028 373.105 512.798 372.414 512.337 371.902C511.876 371.39 511.228 371.134 510.392 371.134C509.743 371.134 509.163 371.254 508.651 371.492C508.156 371.714 507.644 372.064 507.115 372.542L505.963 371.057C506.424 370.648 506.885 370.306 507.345 370.033C507.806 369.76 508.292 369.555 508.804 369.419C509.334 369.282 509.897 369.214 510.494 369.214C511.484 369.214 512.329 369.41 513.028 369.803C513.728 370.178 514.266 370.724 514.641 371.441C515.034 372.141 515.23 372.952 515.23 373.873C515.23 374.607 515.153 375.29 514.999 375.921C514.846 376.552 514.615 377.167 514.308 377.764C514.018 378.361 513.651 378.976 513.207 379.607C512.764 380.239 512.252 380.904 511.672 381.604L508.42 385.674V385.777H515.691V387.748Z" fill="black"/>
<path d="M515.691 523.807H505.835V522.143L509.777 516.972C510.579 515.966 511.211 515.095 511.672 514.361C512.149 513.611 512.491 512.902 512.695 512.237C512.917 511.571 513.028 510.837 513.028 510.035C513.028 509.165 512.798 508.474 512.337 507.962C511.876 507.45 511.228 507.194 510.392 507.194C509.743 507.194 509.163 507.313 508.651 507.552C508.156 507.774 507.644 508.124 507.115 508.602L505.963 507.117C506.424 506.707 506.885 506.366 507.345 506.093C507.806 505.82 508.292 505.615 508.804 505.479C509.334 505.342 509.897 505.274 510.494 505.274C511.484 505.274 512.329 505.47 513.028 505.863C513.728 506.238 514.266 506.784 514.641 507.501C515.034 508.201 515.23 509.011 515.23 509.933C515.23 510.667 515.153 511.349 514.999 511.981C514.846 512.612 514.615 513.227 514.308 513.824C514.018 514.421 513.651 515.036 513.207 515.667C512.764 516.298 512.252 516.964 511.672 517.664L508.42 521.734V521.836H515.691V523.807Z" fill="black"/>
</svg>
