<svg width="212" height="13" viewBox="0 0 212 13" fill="none" xmlns="http://www.w3.org/2000/svg">
<path d="M1.9541 4.62897C65.3704 4.62897 129.361 7.28649 192.639 2.81225C201.868 2.1597 196.205 2.11352 192.43 2.11352C183.276 2.11352 174.123 2.11352 164.969 2.11352C141.841 2.11352 118.713 2.11352 95.5848 2.11352C84.4437 2.11352 51.353 0.766027 62.1852 3.37124C82.1273 8.16744 104.065 8.10995 124.373 8.82138C151.285 9.76418 178.222 9.65987 205.147 9.65987C230.301 9.65987 154.834 9.31743 129.683 9.72974C121.713 9.86039 113.581 10.036 105.647 10.9176C102.267 11.2931 112.448 10.9176 115.848 10.9176C145.801 10.9176 175.753 10.9176 205.706 10.9176" stroke="#B30000" stroke-width="3" stroke-linecap="round"/>
</svg>
