<svg width="97" height="135" viewBox="0 0 97 135" fill="none" xmlns="http://www.w3.org/2000/svg">
<path d="M18.7746 60.1157C16.1417 62.9351 22.5189 62.2927 23.8571 62.2927C28.676 62.2927 33.495 62.2927 38.314 62.2927C39.1276 62.2927 46.7951 61.4506 43.1141 63.6533C34.5646 68.7693 25.4963 72.7969 16.6851 77.3502C16.2988 77.5498 8.82691 81.2994 10.9814 81.3413C16.0765 81.4405 21.1575 81.1904 26.2289 80.6761C31.3823 80.1535 36.5387 79.6223 41.6741 78.9224C42.2656 78.8418 45.005 78.0673 43.1706 79.0131C37.4729 81.9508 31.4112 84.1586 25.6077 86.8442C25.2952 86.9888 9.37286 94.9572 9.71079 95.3707C10.5867 96.4427 17.375 95.0334 18.3228 94.9474C25.2711 94.3169 31.8223 92.6438 38.5963 91.0168C41.9935 90.2008 45.3895 89.3687 48.7896 88.5677C49.8316 88.3222 52.8338 87.6101 51.9803 88.2955C48.8446 90.8139 43.5549 92.2819 40.0081 93.7985C30.7394 97.7617 21.1358 100.833 11.772 104.532C11.2077 104.755 -3.707 109.499 4.26122 109.037C12.5682 108.557 20.7086 105.391 28.7702 103.413C33.5905 102.231 38.5611 100.906 43.5094 100.511C45.1809 100.377 46.537 100.431 45.4012 102.053C42.3591 106.396 37.2734 108.563 33.0621 111.335C32.8303 111.488 28.7502 113.785 31.1985 113.331C35.0499 112.617 38.7928 111.083 42.6623 110.307C49.9925 108.838 42.2563 110.457 48.8743 109.098C49.8981 108.887 52.6477 107.847 51.9803 108.705C49.9737 111.283 44.5126 113.202 41.8435 114.631C35.4913 118.032 28.855 120.778 22.4735 124.125C19.6612 125.6 23.8002 124.697 24.6195 124.518C28.9567 123.572 33.2494 122.534 37.6363 121.857C40.7082 121.384 38.526 121.908 37.0716 122.764C32.1371 125.671 26.7487 128.834 22.6147 132.984C20.6227 134.984 27.2259 129.846 29.4478 128.146" stroke="#B30000" stroke-width="3" stroke-linecap="round"/>
<path d="M60.7753 4.58191C62.4968 4.79709 61.1282 27.5186 61.3148 29.8196C61.4026 30.9027 62.2849 27.8304 63.0533 27.062C64.2615 25.8538 66.032 25.1571 67.6692 24.7841C71.4022 23.9335 74.356 25.0899 77.2008 27.5716C80.4985 30.4483 91.3631 41.1852 85.1907 51.5659C77.2008 58.58 69.1988 59.1411 61.3148 57.1772C55.3989 55.7036 50.8846 52.5081 52.1429 49.3623" stroke="#B30000" stroke-width="4.30519" stroke-linecap="round"/>
<path d="M54.3008 4.0424C54.6194 4.89203 57.0898 5.05748 57.8377 5.09147C64.1873 5.38009 70.6056 5.12144 76.9608 5.12144C80.3223 5.12144 84.7251 5.94936 87.991 4.88166C90.3412 4.11332 92.3604 2.95819 94.765 2.42383" stroke="#B30000" stroke-width="4.30519" stroke-linecap="round"/>
</svg>
