<svg width="447" height="80" viewBox="0 0 447 80" fill="none" xmlns="http://www.w3.org/2000/svg">
<path d="M132.484 53.3778C160.391 30.7862 202.379 31.0636 236.355 30.5802C269.762 30.1049 305.591 33.2814 336.448 47.3075" stroke="#B30000" stroke-width="3" stroke-linecap="round"/>
<path d="M148.574 35.0945C148.574 41.54 144.158 46.9098 141.838 52.71C141.097 54.5619 144.475 49.6683 145.394 47.8982C146.436 45.8919 147.116 43.6297 144.474 45.806C141.394 48.342 138.722 51.4379 135.52 53.7979C132.057 56.3495 136.777 54.7252 138.323 53.9234C141.44 52.3072 144.808 51.844 148.24 51.0781C152.8 50.0602 158.692 50.7472 162.884 48.6513" stroke="#B30000" stroke-width="3" stroke-linecap="round"/>
<path d="M299.959 45.6387C307.524 45.7396 314.699 48.0418 322.177 49.1534C327.538 49.9503 333.788 52.6378 339.374 51.6221C340.082 51.4934 328.83 40.9637 326.989 39.6135C323.354 36.9477 318.761 34.4288 315.817 30.994C313.271 28.0233 320.816 37.0146 323.307 40.0319C326.304 43.6625 331.876 45.6616 334.437 49.4045C336.8 52.8576 339.852 53.473 334.102 52.2498C321.407 49.5487 308.809 46.4244 296.193 43.3792" stroke="#B30000" stroke-width="3" stroke-linecap="round"/>
<path d="M148.574 30.5756V43.3792" stroke="#B30000" stroke-width="3" stroke-linecap="round"/>
<path d="M88.3735 16.4005C92.0208 20.4125 93.4515 26.1351 96.6302 30.3734" stroke="#B30000" stroke-width="3" stroke-linecap="round"/>
<path d="M98.5359 14.4951C98.5359 17.6404 98.462 20.6351 99.4533 23.6692C100.339 26.3805 101.787 28.8453 102.347 31.6436" stroke="#B30000" stroke-width="3" stroke-linecap="round"/>
<path d="M4.43164 57.0207C18.2107 54.7242 32.9327 42.7434 46.0116 37.3717C92.6609 18.2121 143.141 6.51609 193.57 3.52457C260.991 -0.475017 332.099 -1.67331 391.328 35.4701C410.003 47.1817 427.359 61.8407 444.824 75.2753" stroke="#B30000" stroke-width="3" stroke-linecap="round"/>
<path d="M13.7923 45.438C17.9395 46.4748 2.25793 62.4945 2.22179 62.565C1.55169 63.8733 9.00293 61.8163 9.4779 61.6171C16.0527 58.86 23.3445 57.542 30.2657 56.028" stroke="#B30000" stroke-width="3" stroke-linecap="round"/>
<path d="M435.627 51.9097C438.254 60.0822 438.588 68.6824 441.118 76.8811C441.784 79.0381 439.828 77.1544 438.504 76.587C433.246 74.3338 426.543 75.2713 420.919 74.8547" stroke="#B30000" stroke-width="3" stroke-linecap="round"/>
</svg>
