<svg width="279" height="29" viewBox="0 0 279 29" fill="none" xmlns="http://www.w3.org/2000/svg">
<path d="M8.7474 8.45471C9.50974 10.1 9.0324 12.6116 9.0324 14.3595C9.0324 16.4019 8.83673 18.0794 8.4624 20.0183" stroke="#B30000" stroke-width="3" stroke-linecap="round"/>
<path d="M2.19238 15.0977H18.1523" stroke="#B30000" stroke-width="3" stroke-linecap="round"/>
<path d="M22.9902 2.09833C26.1813 3.12338 29.8746 3.41429 33.2343 3.67021C35.1446 3.81572 37.9196 3.32508 39.7101 3.92991C40.1438 4.0764 39.2842 5.32167 39.2034 5.48812C37.1852 9.65025 34.913 13.7612 33.4085 18.0905C32.4237 20.9244 31.5942 23.8064 30.891 26.7017C30.5142 28.2532 30.8827 26.6247 30.9702 26.2096" stroke="#B30000" stroke-width="3" stroke-linecap="round"/>
<path d="M28.1201 14.2365C29.0471 14.3254 29.8793 14.6794 30.8751 14.7285C34.7059 14.9175 38.536 15.1024 42.37 15.2206" stroke="#B30000" stroke-width="3" stroke-linecap="round"/>
<path d="M71.007 6.03434C70.8684 4.83772 68.4861 3.67955 67.2704 3.2733C64.5948 2.37919 62.3593 2.8023 60.8104 4.91352C59.021 7.35262 57.3104 11.0414 60.1138 13.3607C62.8487 15.6233 64.7236 12.7839 66.1462 11.1054C67.0575 10.0302 67.9276 8.93799 68.6479 7.75657C68.8179 7.47764 68.7262 8.75737 68.7429 8.97307C68.969 11.9007 69.9603 14.8338 69.6929 17.7893C69.3623 21.4425 65.3999 24.4273 62.1088 26.3868C60.8077 27.1614 59.2777 25.8555 58.1821 25.2249" stroke="#B30000" stroke-width="3" stroke-linecap="round"/>
<path d="M80.9618 5.18841C81.7205 3.52205 85.8067 3.20628 85.8067 5.46382C85.8067 6.95326 85.9987 8.47956 85.3476 9.87041C83.8935 12.9766 80.6954 15.3205 78.4126 17.8574C76.9452 19.4881 75.5647 21.6493 75.8951 23.9164C76.2139 26.1033 80.3275 25.525 81.8643 25.5536C84.6232 25.6049 87.3855 25.5689 90.145 25.5689C90.8064 25.5689 91.2143 25.5831 91.5067 25.0181" stroke="#B30000" stroke-width="3" stroke-linecap="round"/>
<path d="M96.2186 2.2627C95.6397 4.87326 94.722 13.2151 94.1044 15.8411C94.0189 16.2045 93.7063 16.9238 94.3102 16.9886C95.7561 17.1439 97.3244 17.2267 98.7752 17.2641C100.985 17.321 104.174 17.8443 106.312 17.2181C106.795 17.0767 106.348 16.4265 106.153 16.2389C105.591 15.6956 105.647 14.7091 105.647 13.9744" stroke="#B30000" stroke-width="3" stroke-linecap="round"/>
<path d="M105.362 12.3219C105.362 7.36104 104.792 22.2333 104.792 27.1941" stroke="#B30000" stroke-width="3" stroke-linecap="round"/>
<path d="M137.736 5.52341C136.668 4.99315 134.986 4.11685 136.768 3.16192C137.684 2.67101 139.307 2.973 140.306 2.973C141.583 2.973 142.127 2.91738 142.226 4.26395C142.475 7.67258 140.297 10.3539 138.02 12.8755C135.531 15.6309 131.126 18.6316 131.126 22.5891C131.126 24.5924 132.571 26.119 134.732 26.4305C135.627 26.5594 137.499 26.7925 138.203 26.1156C139.18 25.1774 139.238 23.3141 139.238 22.0696C139.238 18.3891 137.259 14.5436 136.1 11.065C135.537 9.37477 134.137 8.11141 133.83 6.37354" stroke="#B30000" stroke-width="3" stroke-linecap="round"/>
<path d="M154.26 4.24634C152.271 4.90869 150.742 7.13799 149.737 8.79614C148.188 11.3524 146.526 13.5943 146.015 16.5576C145.626 18.8129 146.035 21.2832 147.284 23.2642C148.072 24.5151 149.933 24.6881 151.323 24.933C152.979 25.2248 154.919 25.5294 156.363 24.4764C158.129 23.1895 158.375 19.8753 157.916 17.9745C156.726 13.0554 147.829 14.8837 144.947 16.9984" stroke="#B30000" stroke-width="3" stroke-linecap="round"/>
<path d="M167.422 7.68407C165.833 9.60436 165.008 13.6777 164.842 16.1295C164.651 18.9571 164.559 21.7809 166.278 24.1901C167.23 25.525 168.721 25.4395 170.384 25.0717C173.264 24.4345 175.033 22.1574 175.875 19.6246C176.876 16.6155 176.592 13.0857 176.476 9.95819C176.38 7.39014 175.989 5.98953 173.488 4.81014C168.099 2.26868 163.632 7.61541 161.17 11.5955" stroke="#B30000" stroke-width="3" stroke-linecap="round"/>
<path d="M202.368 16.473C202.468 13.5092 204.076 10.0753 204.925 7.19493C205.348 5.75726 205.655 4.39014 205.655 2.90877C205.655 2.17257 205.625 2.39685 205.472 3.04648C204.501 7.16776 204.925 11.5785 204.925 15.75C204.925 19.5195 204.761 23.2427 204.559 27.0076" stroke="#B30000" stroke-width="3" stroke-linecap="round"/>
<path d="M214.055 4.54433C214.892 2.41428 221.856 5.535 222.028 6.91979C222.26 8.78788 219.775 10.8658 218.011 11.6535C216.802 12.1933 215.341 12.7238 214.014 13.0134C213.786 13.0631 215.1 12.6092 215.597 12.6002C218.077 12.5555 220.799 12.7078 222.576 14.3904C224.476 16.19 222.757 20.7681 222.089 22.7906C221.53 24.4837 221.111 25.4603 218.944 25.5964C217.731 25.6727 215.047 25.7475 214.42 24.6841" stroke="#B30000" stroke-width="3" stroke-linecap="round"/>
<path d="M250.691 6.45938C250.691 5.13258 253.438 4.56391 254.487 4.61093C255.86 4.67254 257.007 5.73274 257.439 6.97151C258.306 9.46393 257.151 11.4096 255.557 13.3571C253.479 15.8961 250.801 17.534 248.323 19.6386C247.983 19.9273 246.02 24.1923 246.442 24.7933C246.513 24.8951 247.049 24.8253 247.139 24.8253C248.323 24.8253 249.507 24.8253 250.691 24.8253C253.4 24.8253 256.109 24.8253 258.817 24.8253" stroke="#B30000" stroke-width="3" stroke-linecap="round"/>
<path d="M269.507 6.28599C269.197 6.32 268.887 6.73787 268.69 6.93227C267.724 7.88469 266.977 8.86926 266.287 10.0433C265.781 10.902 265.239 11.7452 264.999 12.722C264.712 13.8909 264.562 15.0792 264.285 16.2431C263.965 17.5945 263.734 18.9314 263.734 20.3214C263.734 21.0685 264.095 21.8676 264.403 22.5544C264.936 23.7432 266.235 24.8297 267.601 24.8988C268.399 24.9392 269.161 25.2197 269.963 25.2197C270.598 25.2197 271.409 25.378 271.965 25.0414C272.404 24.7752 272.825 24.4258 273.225 24.1054C273.612 23.7953 273.766 23.3 274.101 22.9377C274.846 22.1328 275.586 21.2645 276.093 20.2902C277.252 18.0656 277.172 15.5227 277.15 13.0875C277.139 11.8797 277.531 9.90363 276.906 8.87556C276.093 7.53747 275.167 6.23803 274.101 5.08258C273.513 4.4455 271.609 4.20007 270.686 4.20007C269.853 4.20007 269.008 4.37705 268.532 5.08258" stroke="#B30000" stroke-width="3" stroke-linecap="round"/>
</svg>
