<svg width="155" height="117" viewBox="0 0 155 117" fill="none" xmlns="http://www.w3.org/2000/svg">
<path d="M2.0459 72.3081C7.08023 77.0907 9.72886 83.0559 11.1331 89.9632C12.682 97.5821 13.1453 120.975 13.1453 113.201C13.1453 104.095 20.0771 95.459 26.9708 90.0931C42.2982 78.1625 65.2752 77.6625 83.8307 76.3973" stroke="#B30000" stroke-width="3" stroke-linecap="round"/>
<path d="M34.2269 41.0511C35.3493 49.0037 39.4467 55.1915 43.5399 61.865" stroke="#B30000" stroke-width="2.48686" stroke-linecap="round"/>
<path d="M35.4644 40.678C36.2408 39.2312 37.5887 37.0542 39.0222 36.2495C40.9054 35.1923 44.8219 38.8916 45.7928 40.1135C48.4171 43.4164 46.1541 48.092 44.6462 51.2953C43.0959 54.5885 39.2055 53.0858 44.9481 50.8668C45.7055 49.9705 47.9089 49.7491 48.9245 49.4429C51.7279 48.5976 54.6425 47.642 57.5937 47.5414C61.7521 47.3996 59.5395 52.2563 58.7624 54.6505C57.8018 57.61 56.2303 60.3157 54.1091 62.5965C52.7591 64.048 49.9768 66.6734 47.8312 66.8328C46.514 66.9307 44.1588 64.6908 43.3876 63.5983" stroke="#B30000" stroke-width="2.48686" stroke-linecap="round"/>
<path d="M71.73 25.0577C71.1668 25.2178 70.4532 24.9486 69.8725 24.9241C68.3452 24.8595 66.935 25.0253 65.4869 25.5314C60.8277 27.1601 59.5119 30.6306 60.4277 35.6032C61.0267 38.8559 62.4442 42.8239 64.354 45.5553C66.382 48.4558 67.6149 51.3579 70.8094 53.0558C74.3826 54.955 81.5441 47.8622 82.5452 45.8639" stroke="#B30000" stroke-width="2.48686" stroke-linecap="round"/>
<path d="M79.1393 24.6766C78.9415 24.0203 79.811 25.8826 80.2593 26.4012C81.093 27.3658 81.7343 28.4275 82.3027 29.572C84.5102 34.0176 86.0297 39.1257 88.951 43.1654C91.6024 46.8319 100.82 37.0517 102.736 35.7844" stroke="#B30000" stroke-width="2.48686" stroke-linecap="round"/>
<path d="M86.0586 33.0541C88.9917 31.6647 94.7274 29.0699 97.8244 28.1851" stroke="#B30000" stroke-width="2.48686" stroke-linecap="round"/>
<path d="M79.0991 22.4518C81.3726 22.2125 83.8948 19.9986 86.0635 19.2209C88.78 18.2467 91.4035 17.2823 94.2843 17.2823" stroke="#B30000" stroke-width="2.48686" stroke-linecap="round"/>
<path d="M119.214 8.45326C120.713 12.685 123.441 17.4114 125.642 21.2865C127.647 24.8161 129.756 28.3304 131.915 31.7686C132.046 31.9772 132.95 33.7591 133.46 33.7212C135.251 33.5881 135.662 30.4296 135.965 29.16C137.305 23.5402 138.223 18.1873 138.72 12.4314C138.885 10.5226 138.799 8.58485 138.585 6.69788C138.548 6.37297 138.149 5.74333 138.298 5.43463C138.441 5.13668 140.05 6.86766 140.2 7.01712C146.918 13.7458 146.131 23.3514 153.495 29.4278" stroke="#B30000" stroke-width="2.48686" stroke-linecap="round"/>
</svg>
