<svg width="547" height="548" viewBox="0 0 547 548" fill="none" xmlns="http://www.w3.org/2000/svg">
<rect x="477.169" y="138.102" width="68.0198" height="68.0198" fill="white" stroke="black" stroke-width="2.42928"/>
<rect x="477.169" y="274.146" width="68.0198" height="68.0198" fill="white" stroke="black" stroke-width="2.42928"/>
<rect x="477.169" y="410.21" width="68.0198" height="68.0198" fill="white" stroke="black" stroke-width="2.42928"/>
<rect x="409.314" y="70.0882" width="68.0198" height="68.0198" fill="white" stroke="black" stroke-width="2.42928"/>
<rect x="409.314" y="206.154" width="68.0198" height="68.0198" fill="white" stroke="black" stroke-width="2.42928"/>
<rect x="409.314" y="342.158" width="68.0198" height="68.0198" fill="white" stroke="black" stroke-width="2.42928"/>
<rect x="409.314" y="478.163" width="68.0198" height="68.0198" fill="white" stroke="black" stroke-width="2.42928"/>
<rect x="341.288" y="138.102" width="68.0198" height="68.0198" fill="white" stroke="black" stroke-width="2.42928"/>
<rect x="341.288" y="274.146" width="68.0198" height="68.0198" fill="white" stroke="black" stroke-width="2.42928"/>
<rect x="341.288" y="410.21" width="68.0198" height="68.0198" fill="white" stroke="black" stroke-width="2.42928"/>
<rect x="273.436" y="70.0882" width="68.0198" height="68.0198" fill="white" stroke="black" stroke-width="2.42928"/>
<rect x="273.436" y="206.154" width="68.0198" height="68.0198" fill="white" stroke="black" stroke-width="2.42928"/>
<rect x="273.436" y="342.158" width="68.0198" height="68.0198" fill="white" stroke="black" stroke-width="2.42928"/>
<rect x="273.436" y="478.163" width="68.0198" height="68.0198" fill="white" stroke="black" stroke-width="2.42928"/>
<rect x="205.409" y="138.102" width="68.0198" height="68.0198" fill="white" stroke="black" stroke-width="2.42928"/>
<rect x="205.409" y="274.146" width="68.0198" height="68.0198" fill="white" stroke="black" stroke-width="2.42928"/>
<rect x="205.409" y="410.21" width="68.0198" height="68.0198" fill="white" stroke="black" stroke-width="2.42928"/>
<rect x="137.558" y="70.0882" width="68.0198" height="68.0198" fill="white" stroke="black" stroke-width="2.42928"/>
<rect x="137.558" y="206.154" width="68.0198" height="68.0198" fill="white" stroke="black" stroke-width="2.42928"/>
<rect x="137.558" y="342.158" width="68.0198" height="68.0198" fill="white" stroke="black" stroke-width="2.42928"/>
<rect x="137.558" y="478.163" width="68.0198" height="68.0198" fill="white" stroke="black" stroke-width="2.42928"/>
<rect x="69.5282" y="138.102" width="68.0198" height="68.0198" fill="white" stroke="black" stroke-width="2.42928"/>
<rect x="69.5282" y="274.146" width="68.0198" height="68.0198" fill="white" stroke="black" stroke-width="2.42928"/>
<rect x="69.5282" y="410.21" width="68.0198" height="68.0198" fill="white" stroke="black" stroke-width="2.42928"/>
<rect x="1.67863" y="70.0882" width="68.0198" height="68.0198" fill="white" stroke="black" stroke-width="2.42928"/>
<rect x="477.169" y="2.05839" width="68.0198" height="68.0198" fill="white" stroke="black" stroke-width="2.42928"/>
<rect x="341.288" y="2.05839" width="68.0198" height="68.0198" fill="white" stroke="black" stroke-width="2.42928"/>
<rect x="205.409" y="2.05839" width="68.0198" height="68.0198" fill="white" stroke="black" stroke-width="2.42928"/>
<rect x="69.5282" y="2.05839" width="68.0198" height="68.0198" fill="white" stroke="black" stroke-width="2.42928"/>
<rect x="1.67863" y="206.154" width="68.0198" height="68.0198" fill="white" stroke="black" stroke-width="2.42928"/>
<rect x="1.67863" y="342.158" width="68.0198" height="68.0198" fill="white" stroke="black" stroke-width="2.42928"/>
<rect x="1.67863" y="478.163" width="68.0198" height="68.0198" fill="white" stroke="black" stroke-width="2.42928"/>
</svg>
