<svg width="88" height="121" viewBox="0 0 88 121" fill="none" xmlns="http://www.w3.org/2000/svg">
<path d="M14.9887 1.51868C14.9887 5.87328 14.9647 10.1615 14.4915 14.4999C13.7141 21.6262 12.6522 28.7282 11.9266 35.856C10.3866 50.9842 10.4213 66.209 10.2516 81.3949C10.2046 85.6021 9.7955 89.7218 9.44032 93.905C9.27388 95.8653 9.2965 96.1622 9.33563 94.1668C9.41508 90.1148 10.4526 86.0827 11.22 82.1277C12.6297 74.8625 13.6361 67.5141 15.3028 60.3005C18.539 46.2937 22.9809 32.5597 25.7715 18.4518C26.0293 17.1483 29.0845 5.52901 25.1172 9.8413C22.8853 12.2673 22.4473 16.6144 21.7411 19.6295C18.9351 31.6089 17.4872 43.6866 16.7684 55.956C16.0387 68.4114 15.6727 80.8865 14.727 93.3293C14.4881 96.4731 14.4178 98.0784 13.1044 94.7949" stroke="#B30000" stroke-width="3" stroke-linecap="round"/>
<path d="M48.6559 27.1652C45.4165 20.3919 46.7134 14.1312 55.0419 12.2997C63.1929 10.5071 73.8226 10.7824 81.5277 14.2364C86.6069 16.5133 86.2001 20.1554 83.8308 24.6528C79.4284 33.0091 72.4549 39.686 66.6621 47.0296C59.9153 55.5827 52.704 65.3999 49.1794 75.8447C47.7002 80.2281 47.7138 84.7401 47.7138 89.297C47.7138 92.1776 47.3942 88.2986 47.2427 87.465" stroke="#B30000" stroke-width="3" stroke-linecap="round"/>
<path d="M40.6475 114.317C40.8634 118.204 45.6267 117.592 47.3998 115.181C48.555 113.61 49.2014 110.446 48.4466 108.559C47.384 105.903 44.1091 107.732 43.2123 109.502C42.1746 111.55 40.5163 121.898 44.8611 117.824C45.2409 117.468 46.5116 115.315 45.6201 114.893C44.1865 114.214 41.6896 116.399 40.6475 117.144" stroke="#B30000" stroke-width="3" stroke-linecap="round"/>
<path d="M11.6911 112.225C10.483 112.286 7.79683 113.107 9.12625 114.816C10.188 116.181 14.1296 115.641 15.6168 115.418C18.4279 114.997 16.7108 111.226 15.8786 109.608C14.0364 106.026 10.149 106.105 6.71844 107.462C3.56915 108.708 -0.998244 113.602 4.31064 115.261C5.5556 115.65 14.7537 117.648 14.5176 115.523C14.1166 111.914 2.78384 122.356 11.6911 117.407" stroke="#B30000" stroke-width="3" stroke-linecap="round"/>
</svg>
